<?xml version="1.0" encoding="UTF-8"?>
<svg xmlns="http://www.w3.org/2000/svg" viewBox="0 0 874.0 670.0">
  <style>
    path { fill: #134E70; }
    @media (prefers-color-scheme: dark) {
      path { fill: #F3F4F5; }
    }
  </style>
  <path d="M8.0 626.5 L8.0 625.5 L8.0 624.5 L8.0 623.5 L8.0 622.5 L8.0 621.5 L8.0 620.5 L8.0 619.5 L8.0 618.5 L8.0 617.5 L8.0 610.1 L8.0 608.9 L8.0 607.7 L8.0 607.4 L8.0 607.2 L8.0 606.9 L8.0 606.6 L8.0 606.2 L8.0 605.6 L8.0 605.0 L8.0 604.4 L8.0 603.7 L8.0 603.0 L8.0 602.3 L8.0 601.5 L8.0 600.7 L8.0 599.9 L8.0 599.0 L8.0 598.1 L8.0 597.2 L8.0 596.3 L8.0 595.4 L8.1 594.4 L8.1 593.5 L8.1 592.5 L8.1 591.5 L8.1 590.6 L8.1 589.6 L8.2 588.6 L8.2 587.7 L8.2 586.7 L8.3 585.7 L8.3 584.8 L8.3 583.8 L8.4 582.9 L8.4 581.9 L8.5 581.0 L8.5 580.0 L8.6 579.1 L8.6 578.1 L8.7 577.2 L8.8 576.3 L8.8 575.3 L8.9 574.4 L9.0 573.5 L9.1 572.6 L9.1 571.6 L9.2 570.7 L9.3 569.8 L9.4 568.9 L9.5 568.0 L9.6 567.1 L9.7 566.2 L9.8 565.3 L9.9 564.4 L10.0 563.5 L10.1 562.6 L10.2 561.7 L10.3 560.8 L10.5 560.0 L10.6 559.1 L10.7 558.2 L10.8 557.3 L11.0 556.5 L11.1 555.6 L11.2 554.7 L11.4 553.9 L11.5 553.0 L11.7 552.2 L11.8 551.3 L12.0 550.5 L12.1 549.6 L12.3 548.8 L12.5 548.0 L12.6 547.1 L12.8 546.3 L13.0 545.5 L13.1 544.6 L13.3 543.8 L13.5 543.0 L13.7 542.2 L13.9 541.4 L14.0 540.5 L14.2 539.7 L14.4 538.9 L14.6 538.1 L14.8 537.3 L15.0 536.5 L15.2 535.7 L15.4 534.9 L15.6 534.1 L15.8 533.3 L16.0 532.5 L16.2 531.7 L16.4 530.9 L16.6 530.1 L16.8 529.3 L17.0 528.5 L17.2 527.7 L17.4 526.9 L17.6 526.1 L17.8 525.3 L18.0 524.5 L18.2 523.7 L18.4 522.9 L18.6 522.1 L18.8 521.3 L19.0 520.5 L19.2 519.7 L19.4 518.9 L19.6 518.1 L19.8 517.3 L20.1 516.6 L20.3 515.8 L20.5 515.0 L20.7 514.2 L20.9 513.4 L21.2 512.7 L21.4 511.9 L21.6 511.1 L21.9 510.4 L22.1 509.6 L22.3 508.8 L22.6 508.1 L22.8 507.3 L23.1 506.6 L23.3 505.8 L23.6 505.1 L23.8 504.3 L24.1 503.6 L24.3 502.8 L24.6 502.1 L24.8 501.3 L25.1 500.6 L25.3 499.8 L25.6 499.1 L25.9 498.4 L26.1 497.6 L26.4 496.9 L26.7 496.2 L26.9 495.4 L27.2 494.7 L27.5 494.0 L27.8 493.3 L28.0 492.5 L28.3 491.8 L28.6 491.1 L28.9 490.4 L29.2 489.7 L29.4 488.9 L29.7 488.2 L30.0 487.5 L30.3 486.8 L30.6 486.1 L30.9 485.4 L31.2 484.7 L31.5 484.0 L31.8 483.3 L32.1 482.6 L32.4 481.9 L32.7 481.2 L33.0 480.5 L33.3 479.8 L33.6 479.1 L34.0 478.5 L34.3 477.8 L34.6 477.1 L34.9 476.4 L35.2 475.7 L35.6 475.1 L35.9 474.4 L36.2 473.7 L36.5 473.0 L36.9 472.4 L37.2 471.7 L37.5 471.0 L37.9 470.4 L38.2 469.7 L38.6 469.1 L38.9 468.4 L39.2 467.7 L39.6 467.1 L39.9 466.4 L40.3 465.8 L40.6 465.1 L41.0 464.5 L41.3 463.8 L41.7 463.2 L42.0 462.5 L42.4 461.9 L42.7 461.2 L43.1 460.6 L43.4 459.9 L43.8 459.3 L44.2 458.7 L44.5 458.0 L44.9 457.4 L45.3 456.8 L45.6 456.1 L46.0 455.5 L46.4 454.9 L46.7 454.2 L47.1 453.6 L47.5 453.0 L47.9 452.4 L48.2 451.7 L48.6 451.1 L49.0 450.5 L49.4 449.9 L49.8 449.3 L50.2 448.7 L50.5 448.0 L50.9 447.4 L51.3 446.8 L51.7 446.2 L52.1 445.6 L52.5 445.0 L52.9 444.4 L53.3 443.8 L53.7 443.2 L54.1 442.6 L54.5 442.0 L54.9 441.4 L55.3 440.8 L55.7 440.2 L56.1 439.6 L56.5 439.0 L56.9 438.4 L57.3 437.8 L57.7 437.2 L58.1 436.6 L58.5 436.0 L58.9 435.4 L59.3 434.8 L59.7 434.2 L60.2 433.7 L60.6 433.1 L61.0 432.5 L61.4 431.9 L61.8 431.3 L62.3 430.8 L62.7 430.2 L63.1 429.6 L63.5 429.0 L64.0 428.5 L64.4 427.9 L64.8 427.3 L65.3 426.8 L65.7 426.2 L66.1 425.6 L66.5 425.0 L67.0 424.5 L67.4 423.9 L67.9 423.4 L68.3 422.8 L68.7 422.2 L69.2 421.7 L69.6 421.1 L70.1 420.6 L70.5 420.0 L70.9 419.4 L71.4 418.9 L71.8 418.3 L72.3 417.8 L72.7 417.2 L73.2 416.7 L73.6 416.1 L74.1 415.6 L74.6 415.1 L75.0 414.5 L75.5 414.0 L75.9 413.4 L76.4 412.9 L76.9 412.4 L77.3 411.8 L77.8 411.3 L78.3 410.8 L78.7 410.2 L79.2 409.7 L79.7 409.2 L80.2 408.7 L80.6 408.1 L81.1 407.6 L81.6 407.1 L82.1 406.6 L82.6 406.1 L83.1 405.6 L83.6 405.1 L84.0 404.5 L84.5 404.0 L85.0 403.5 L85.5 403.0 L86.0 402.5 L86.5 402.0 L87.0 401.5 L87.5 401.0 L88.0 400.5 L88.5 400.0 L89.0 399.5 L89.5 399.0 L90.0 398.5 L90.5 398.0 L91.1 397.6 L91.6 397.1 L92.1 396.6 L92.6 396.1 L93.1 395.6 L93.6 395.1 L94.1 394.6 L94.7 394.2 L95.2 393.7 L95.7 393.2 L96.2 392.7 L96.7 392.2 L97.3 391.8 L97.8 391.3 L98.3 390.8 L98.9 390.4 L99.4 389.9 L99.9 389.4 L100.5 389.0 L101.0 388.5 L101.6 388.0 L102.1 387.6 L102.7 387.1 L103.2 386.7 L103.7 386.2 L104.3 385.8 L104.9 385.3 L105.4 384.9 L106.0 384.4 L106.5 384.0 L107.1 383.5 L107.7 383.1 L108.2 382.7 L108.8 382.2 L109.4 381.8 L109.9 381.4 L110.5 380.9 L111.1 380.5 L111.7 380.1 L112.3 379.7 L112.9 379.3 L113.4 378.8 L114.0 378.4 L114.6 378.0 L115.2 377.6 L115.8 377.2 L116.4 376.8 L117.0 376.4 L117.6 376.0 L118.3 375.6 L118.9 375.2 L119.5 374.8 L120.1 374.4 L120.7 374.0 L121.3 373.6 L122.0 373.2 L122.6 372.9 L123.2 372.5 L123.9 372.1 L124.5 371.7 L125.1 371.4 L125.8 371.0 L126.4 370.6 L127.1 370.3 L127.7 369.9 L128.4 369.6 L129.1 369.2 L129.7 368.8 L130.4 368.5 L131.0 368.2 L131.7 367.8 L132.4 367.5 L133.1 367.1 L133.7 366.8 L134.4 366.5 L135.1 366.1 L135.8 365.8 L136.5 365.5 L137.2 365.2 L137.9 364.9 L138.6 364.6 L139.3 364.2 L140.0 363.9 L140.7 363.6 L141.4 363.3 L142.2 363.0 L142.9 362.7 L143.6 362.4 L144.3 362.2 L145.1 361.9 L145.8 361.6 L146.5 361.3 L147.3 361.0 L148.0 360.8 L148.8 360.5 L149.5 360.2 L150.3 360.0 L151.0 359.7 L151.8 359.5 L152.6 359.2 L153.3 359.0 L154.1 358.7 L154.9 358.5 L155.6 358.2 L156.4 358.0 L157.2 357.8 L158.0 357.5 L158.8 357.3 L159.6 357.1 L160.4 356.9 L161.2 356.7 L162.0 356.5 L162.8 356.2 L163.6 356.0 L164.4 355.8 L165.2 355.6 L166.1 355.4 L166.9 355.3 L167.7 355.1 L168.5 354.9 L169.4 354.7 L170.2 354.5 L171.1 354.3 L171.9 354.2 L172.7 354.0 L173.6 353.8 L174.4 353.7 L175.3 353.5 L176.2 353.4 L177.0 353.2 L177.9 353.1 L178.8 352.9 L179.6 352.8 L180.5 352.7 L181.4 352.5 L182.3 352.4 L183.2 352.3 L184.0 352.1 L184.9 352.0 L185.8 351.9 L186.7 351.8 L187.6 351.7 L188.5 351.6 L189.4 351.4 L190.3 351.3 L191.2 351.2 L192.2 351.1 L193.1 351.1 L194.0 351.0 L194.9 350.9 L195.8 350.8 L196.8 350.7 L197.7 350.6 L198.6 350.5 L199.6 350.5 L200.5 350.4 L201.4 350.3 L202.4 350.3 L203.3 350.2 L204.3 350.1 L205.2 350.1 L206.2 350.0 L207.1 350.0 L208.1 349.9 L209.0 349.9 L210.0 349.8 L210.9 349.8 L211.9 349.7 L212.9 349.7 L213.8 349.7 L214.8 349.6 L215.8 349.6 L216.8 349.6 L217.7 349.5 L218.7 349.5 L219.7 349.5 L220.7 349.5 L221.6 349.4 L222.6 349.4 L223.6 349.4 L224.6 349.4 L225.6 349.4 L226.6 349.4 L227.6 349.3 L228.5 349.3 L229.5 349.3 L230.5 349.3 L231.5 349.3 L232.5 349.3 L233.5 349.3 L234.5 349.3 L235.5 349.3 L236.5 349.3 L237.5 349.3 L238.5 349.3 L239.5 349.3 L240.5 349.3 L241.5 349.3 L242.5 349.3 L243.5 349.3 L244.5 349.3 L245.5 349.3 L246.5 349.3 L247.5 349.3 L248.5 349.3 L249.5 349.3 L250.5 349.3 L251.5 349.3 L252.5 349.3 L253.5 349.3 L254.5 349.3 L255.5 349.3 L256.5 349.3 L257.5 349.3 L258.5 349.3 L259.5 349.3 L260.5 349.3 L261.5 349.3 L262.5 349.3 L263.5 349.3 L264.5 349.3 L265.5 349.3 L266.5 349.3 L267.5 349.3 L268.5 349.3 L269.5 349.3 L270.5 349.3 L271.5 349.3 L272.4 349.3 L273.4 349.3 L274.4 349.3 L275.4 349.3 L276.4 349.3 L277.4 349.3 L278.3 349.3 L279.3 349.3 L280.3 349.3 L281.3 349.3 L282.2 349.3 L283.2 349.3 L284.1 349.3 L285.1 349.3 L286.1 349.3 L287.0 349.3 L288.0 349.3 L288.9 349.3 L289.9 349.3 L290.8 349.3 L291.7 349.3 L292.7 349.3 L293.6 349.3 L294.6 349.3 L295.5 349.3 L296.4 349.3 L297.3 349.3 L298.3 349.3 L299.2 349.3 L300.1 349.3 L301.0 349.2 L301.9 349.2 L302.9 349.2 L303.8 349.1 L304.7 349.1 L305.6 349.0 L306.5 348.9 L307.4 348.9 L308.3 348.8 L309.2 348.7 L310.0 348.6 L310.9 348.4 L311.8 348.3 L312.7 348.2 L313.5 348.0 L314.4 347.9 L315.2 347.7 L316.1 347.5 L316.9 347.4 L317.8 347.2 L318.6 347.0 L319.4 346.8 L320.2 346.6 L321.1 346.4 L321.9 346.2 L322.7 345.9 L323.4 345.7 L324.2 345.5 L325.0 345.2 L325.8 345.0 L326.5 344.7 L327.3 344.5 L328.0 344.2 L328.8 343.9 L329.5 343.7 L330.3 343.4 L331.0 343.1 L331.7 342.8 L332.4 342.5 L333.1 342.2 L333.8 341.9 L334.5 341.6 L335.2 341.3 L335.9 341.0 L336.6 340.6 L337.2 340.3 L337.9 340.0 L338.6 339.6 L339.2 339.3 L339.9 339.0 L340.5 338.6 L341.1 338.2 L341.8 337.9 L342.4 337.5 L343.0 337.2 L343.7 336.8 L344.3 336.4 L344.9 336.0 L345.5 335.7 L346.1 335.3 L346.7 334.9 L347.3 334.5 L347.8 334.1 L348.4 333.7 L349.0 333.3 L349.6 332.9 L350.1 332.5 L350.7 332.0 L351.3 331.6 L351.8 331.2 L352.4 330.8 L352.9 330.3 L353.4 329.9 L354.0 329.5 L354.5 329.0 L355.0 328.6 L355.6 328.1 L356.1 327.7 L356.6 327.2 L357.1 326.8 L357.6 326.3 L358.1 325.8 L358.6 325.3 L359.1 324.9 L359.6 324.4 L360.1 323.9 L360.6 323.4 L361.1 322.9 L361.6 322.4 L362.0 321.9 L362.5 321.4 L363.0 320.9 L363.5 320.4 L363.9 319.8 L364.4 319.3 L364.8 318.8 L365.3 318.3 L365.7 317.7 L366.2 317.2 L366.6 316.6 L367.1 316.1 L367.5 315.5 L367.9 314.9 L368.3 314.4 L368.8 313.8 L369.2 313.2 L369.6 312.6 L370.0 312.0 L370.4 311.5 L370.8 310.9 L371.2 310.3 L371.6 309.6 L372.0 309.0 L372.4 308.4 L372.8 307.8 L373.2 307.2 L373.5 306.5 L373.9 305.9 L374.3 305.3 L374.6 304.6 L375.0 304.0 L375.3 303.3 L375.7 302.7 L376.0 302.0 L376.4 301.3 L376.7 300.7 L377.0 300.0 L377.3 299.3 L377.7 298.6 L378.0 297.9 L378.3 297.2 L378.6 296.5 L378.9 295.8 L379.2 295.1 L379.5 294.4 L379.7 293.7 L380.0 292.9 L380.3 292.2 L380.5 291.5 L380.8 290.7 L381.1 290.0 L381.3 289.2 L381.5 288.5 L381.8 287.7 L382.0 287.0 L382.2 286.2 L382.4 285.4 L382.7 284.6 L382.9 283.8 L383.0 283.0 L383.2 282.2 L383.4 281.4 L383.6 280.6 L383.8 279.8 L383.9 279.0 L384.1 278.2 L384.2 277.3 L384.4 276.5 L384.5 275.7 L384.6 274.8 L384.7 274.0 L384.8 273.1 L384.9 272.3 L385.0 271.4 L385.1 270.6 L385.2 269.7 L385.3 268.8 L385.3 268.0 L385.4 267.1 L385.4 266.2 L385.4 265.4 L385.5 264.5 L385.5 263.6 L385.5 262.7 L385.5 261.7 L385.5 260.8 L385.4 259.9 L385.4 259.1 L385.4 258.2 L385.3 257.3 L385.3 256.5 L385.2 255.6 L385.1 254.7 L385.0 253.9 L384.9 253.0 L384.8 252.2 L384.7 251.3 L384.6 250.5 L384.5 249.6 L384.4 248.8 L384.2 247.9 L384.1 247.1 L383.9 246.3 L383.8 245.5 L383.6 244.7 L383.4 243.8 L383.2 243.0 L383.0 242.2 L382.9 241.4 L382.7 240.7 L382.4 239.9 L382.2 239.1 L382.0 238.3 L381.8 237.6 L381.5 236.8 L381.3 236.0 L381.1 235.3 L380.8 234.5 L380.5 233.8 L380.3 233.1 L380.0 232.3 L379.7 231.6 L379.5 230.9 L379.2 230.2 L378.9 229.5 L378.6 228.8 L378.3 228.1 L378.0 227.4 L377.7 226.7 L377.3 226.0 L377.0 225.3 L376.7 224.6 L376.4 224.0 L376.0 223.3 L375.7 222.6 L375.3 222.0 L375.0 221.3 L374.6 220.7 L374.3 220.0 L373.9 219.4 L373.5 218.7 L373.2 218.1 L372.8 217.5 L372.4 216.9 L372.0 216.2 L371.6 215.6 L371.2 215.0 L370.8 214.4 L370.4 213.8 L370.0 213.2 L369.6 212.6 L369.2 212.1 L368.8 211.5 L368.3 210.9 L367.9 210.3 L367.5 209.8 L367.1 209.2 L366.6 208.7 L366.2 208.1 L365.7 207.6 L365.3 207.0 L364.8 206.5 L364.4 206.0 L363.9 205.4 L363.5 204.9 L363.0 204.4 L362.5 203.9 L362.0 203.4 L361.6 202.9 L361.1 202.4 L360.6 201.9 L360.1 201.4 L359.6 200.9 L359.1 200.4 L358.6 199.9 L358.1 199.5 L357.6 199.0 L357.1 198.5 L356.6 198.1 L356.1 197.6 L355.6 197.1 L355.0 196.7 L354.5 196.2 L354.0 195.8 L353.4 195.4 L352.9 194.9 L352.4 194.5 L351.8 194.1 L351.3 193.6 L350.7 193.2 L350.1 192.8 L349.6 192.4 L349.0 192.0 L348.4 191.6 L347.8 191.2 L347.3 190.8 L346.7 190.4 L346.1 190.0 L345.5 189.6 L344.9 189.2 L344.3 188.9 L343.7 188.5 L343.0 188.1 L342.4 187.7 L341.8 187.4 L341.1 187.0 L340.5 186.7 L339.9 186.3 L339.2 186.0 L338.6 185.6 L337.9 185.3 L337.2 185.0 L336.6 184.6 L335.9 184.3 L335.2 184.0 L334.5 183.7 L333.8 183.4 L333.1 183.1 L332.4 182.8 L331.7 182.5 L331.0 182.2 L330.3 181.9 L329.5 181.6 L328.8 181.3 L328.0 181.1 L327.3 180.8 L326.5 180.5 L325.8 180.3 L325.0 180.0 L324.2 179.8 L323.4 179.6 L322.7 179.3 L321.9 179.1 L321.1 178.9 L320.2 178.7 L319.4 178.5 L318.6 178.3 L317.8 178.1 L316.9 177.9 L316.1 177.7 L315.2 177.6 L314.4 177.4 L313.5 177.3 L312.7 177.1 L311.8 177.0 L310.9 176.8 L310.0 176.7 L309.2 176.6 L308.3 176.5 L307.4 176.4 L306.5 176.3 L305.6 176.3 L304.7 176.2 L303.8 176.1 L302.9 176.1 L301.9 176.1 L301.0 176.0 L300.1 176.0 L299.2 176.0 L298.3 176.0 L297.3 176.0 L296.4 176.0 L295.5 176.0 L294.6 176.0 L293.6 176.0 L292.7 176.0 L291.7 176.0 L290.8 176.0 L289.9 176.0 L288.9 176.0 L288.0 176.0 L287.0 176.0 L286.1 176.0 L285.1 176.0 L284.1 176.0 L283.2 176.0 L282.2 176.0 L281.3 176.0 L280.3 176.0 L279.3 176.0 L278.3 176.0 L277.4 176.0 L276.4 176.0 L275.4 176.0 L274.4 176.0 L273.4 176.0 L272.4 176.0 L271.5 176.0 L270.5 176.0 L269.5 176.0 L268.5 176.0 L267.5 176.0 L266.5 176.0 L265.5 176.0 L264.5 176.0 L263.5 176.0 L262.5 176.0 L261.5 176.0 L260.5 176.0 L259.5 176.0 L258.5 176.0 L257.5 176.0 L256.5 176.0 L255.5 176.0 L254.5 176.0 L253.5 176.0 L252.5 176.0 L251.5 176.0 L250.5 176.0 L249.5 176.0 L248.5 176.0 L247.5 176.0 L246.5 176.0 L245.5 176.0 L244.5 176.0 L243.5 176.0 L242.5 176.0 L241.5 176.0 L240.5 176.0 L239.5 176.0 L238.5 176.0 L237.5 176.0 L236.5 176.0 L235.5 176.0 L234.5 176.0 L233.5 176.0 L232.5 176.0 L231.5 176.0 L230.5 176.0 L229.5 176.0 L228.5 176.0 L227.5 176.0 L226.5 176.0 L225.6 176.0 L224.6 176.0 L223.6 176.0 L222.6 176.0 L221.7 176.0 L220.8 176.0 L219.8 176.0 L218.9 176.0 L218.0 176.0 L217.2 176.0 L216.3 176.0 L215.5 176.0 L214.7 176.0 L214.0 176.0 L213.3 176.0 L212.6 176.0 L212.0 176.0 L211.4 176.0 L210.8 176.0 L210.4 176.0 L210.1 176.0 L209.8 176.0 L209.6 176.0 L209.3 176.0 L208.1 176.0 L206.9 176.0 L199.5 176.0 L198.5 176.0 L197.5 176.0 L196.5 176.0 L195.5 176.0 L194.5 176.0 L193.5 176.0 L192.5 176.0 L191.5 176.0 L190.5 176.0 L182.0 176.0 L182.0 214.0 L174.5 214.0 L173.5 214.0 L172.5 214.0 L171.5 214.0 L170.5 214.0 L169.5 214.0 L168.5 214.0 L167.5 214.0 L166.5 214.0 L165.5 214.0 L158.1 214.0 L156.9 214.0 L155.7 214.0 L155.4 214.0 L155.2 214.0 L154.9 214.0 L154.6 214.0 L154.2 214.0 L153.6 214.0 L153.0 214.0 L152.4 214.0 L151.7 214.0 L151.0 214.0 L150.3 214.0 L149.5 214.0 L148.7 214.0 L147.8 214.0 L147.0 214.0 L146.1 214.0 L145.2 214.0 L144.3 214.0 L143.3 214.0 L142.4 214.0 L141.5 214.0 L140.5 214.0 L139.6 214.0 L138.7 214.0 L137.7 214.0 L136.8 214.0 L135.9 214.0 L135.0 214.0 L134.2 214.0 L133.3 214.0 L132.5 214.0 L131.7 214.0 L131.0 214.0 L130.3 214.0 L129.6 214.0 L129.0 214.0 L128.4 214.0 L127.8 214.0 L127.4 214.0 L127.1 214.0 L126.8 214.0 L126.6 214.0 L126.3 214.0 L125.1 214.0 L123.9 214.0 L116.5 214.0 L115.5 214.0 L114.5 214.0 L8.0 214.0 L8.0 207.5 L8.0 206.5 L8.0 205.5 L8.0 204.5 L8.0 203.5 L8.0 203.0 L8.0 202.5 L8.0 201.5 L8.0 200.5 L8.0 199.5 L8.0 192.7 L8.0 191.5 L8.0 190.4 L8.0 190.2 L8.0 189.9 L8.0 189.6 L8.0 189.3 L8.0 189.0 L8.0 188.4 L8.0 187.8 L8.0 187.2 L8.0 186.6 L8.0 185.9 L8.0 185.1 L8.0 184.4 L8.0 183.6 L8.0 182.7 L8.0 181.9 L8.0 181.0 L8.0 180.1 L8.0 179.2 L8.0 178.3 L8.0 177.3 L8.0 176.4 L8.0 175.4 L8.0 174.4 L8.0 173.4 L8.0 172.5 L8.0 171.5 L8.0 170.5 L8.0 169.5 L8.0 168.5 L8.0 167.5 L8.0 166.5 L8.0 165.5 L8.0 164.5 L8.0 163.5 L8.0 162.5 L8.0 161.5 L8.0 160.5 L8.0 159.5 L8.0 158.5 L8.0 157.5 L8.0 156.5 L8.0 155.5 L8.0 154.5 L8.0 153.5 L8.0 152.5 L8.0 151.5 L8.0 150.5 L8.0 149.5 L8.0 148.5 L8.0 147.5 L8.0 146.5 L8.0 145.5 L8.0 144.5 L8.0 143.5 L8.0 142.5 L8.0 141.5 L8.0 140.5 L8.0 139.5 L8.0 138.5 L8.0 137.5 L8.0 136.5 L8.0 135.5 L8.0 134.5 L8.0 133.5 L8.0 132.5 L8.0 131.5 L8.0 130.5 L8.0 129.5 L8.0 128.5 L8.0 127.5 L8.0 126.5 L8.0 125.5 L8.0 124.5 L8.0 123.5 L8.0 122.5 L8.0 121.5 L8.0 120.5 L8.0 119.5 L8.0 118.5 L8.0 117.5 L8.0 116.5 L8.0 115.5 L8.0 114.5 L8.0 113.5 L8.0 112.5 L8.0 111.5 L8.0 110.6 L8.0 109.6 L8.0 108.6 L8.0 107.7 L8.0 106.7 L8.0 105.8 L8.0 104.8 L8.0 103.9 L8.0 103.0 L8.0 102.2 L8.0 101.3 L8.0 100.5 L8.0 99.7 L8.0 98.9 L8.0 98.2 L8.0 97.5 L8.0 96.9 L8.0 96.3 L8.0 95.7 L8.0 95.1 L8.0 94.8 L8.0 94.5 L8.0 94.2 L8.0 93.9 L8.0 93.7 L8.0 92.6 L8.0 91.4 L8.0 84.5 L8.0 83.5 L8.0 82.5 L8.0 81.5 L8.0 80.5 L8.0 79.5 L8.0 78.5 L8.0 77.5 L8.0 76.5 L8.0 75.5 L8.0 75.0 L94.5 75.0 L95.5 75.0 L96.5 75.0 L103.9 75.0 L105.1 75.0 L106.3 75.0 L106.6 75.0 L106.8 75.0 L107.1 75.0 L107.4 75.0 L107.8 75.0 L108.4 75.0 L109.0 75.0 L109.6 75.0 L110.3 75.0 L111.0 75.0 L111.7 75.0 L112.5 75.0 L113.3 75.0 L114.2 75.0 L115.0 75.0 L115.9 75.0 L116.8 75.0 L117.8 75.0 L118.7 75.0 L119.6 75.0 L120.6 75.0 L121.6 75.0 L122.6 75.0 L123.5 75.0 L124.5 75.0 L125.5 75.0 L126.5 75.0 L127.5 75.0 L128.5 75.0 L129.5 75.0 L130.5 75.0 L131.5 75.0 L132.5 75.0 L133.5 75.0 L134.5 75.0 L135.5 75.0 L136.5 75.0 L137.5 75.0 L138.5 75.0 L139.5 75.0 L140.5 75.0 L141.5 75.0 L142.5 75.0 L143.5 75.0 L144.5 75.0 L145.5 75.0 L146.5 75.0 L147.5 75.0 L148.5 75.0 L149.5 75.0 L150.5 75.0 L151.5 75.0 L152.5 75.0 L153.5 75.0 L154.5 75.0 L155.5 75.0 L156.5 75.0 L157.5 75.0 L158.5 75.0 L159.5 75.0 L160.5 75.0 L161.5 75.0 L162.5 75.0 L163.5 75.0 L164.5 75.0 L165.5 75.0 L166.5 75.0 L167.5 75.0 L168.5 75.0 L169.5 75.0 L170.5 75.0 L171.5 75.0 L172.5 75.0 L173.5 75.0 L174.5 75.0 L175.5 75.0 L176.5 75.0 L177.5 75.0 L178.5 75.0 L179.5 75.0 L180.5 75.0 L181.5 75.0 L182.5 75.0 L183.5 75.0 L184.5 75.0 L185.5 75.0 L186.5 75.0 L187.5 75.0 L188.5 75.0 L189.5 75.0 L190.5 75.0 L191.5 75.0 L192.5 75.0 L193.5 75.0 L194.5 75.0 L195.5 75.0 L196.5 75.0 L197.5 75.0 L198.5 75.0 L199.5 75.0 L200.5 75.0 L201.5 75.0 L202.5 75.0 L203.5 75.0 L204.5 75.0 L205.5 75.0 L206.5 75.0 L207.5 75.0 L208.5 75.0 L209.5 75.0 L210.5 75.0 L211.5 75.0 L212.5 75.0 L213.5 75.0 L214.4 74.9 L215.4 74.9 L216.4 74.9 L217.4 74.9 L218.4 74.9 L219.4 74.9 L220.3 74.8 L221.3 74.8 L222.3 74.8 L223.3 74.8 L224.2 74.7 L225.2 74.7 L226.2 74.7 L227.1 74.6 L228.1 74.6 L229.1 74.6 L230.0 74.5 L231.0 74.5 L232.0 74.5 L232.9 74.4 L233.9 74.4 L234.9 74.4 L235.8 74.3 L236.8 74.3 L237.8 74.3 L238.7 74.2 L239.7 74.2 L240.7 74.2 L241.7 74.2 L242.6 74.1 L243.6 74.1 L244.6 74.1 L245.6 74.1 L246.6 74.1 L247.6 74.1 L248.5 74.0 L249.5 74.0 L250.5 74.0 L251.5 74.0 L252.5 74.0 L253.5 74.0 L254.5 74.0 L255.5 74.0 L256.5 74.0 L257.5 74.0 L258.5 74.0 L259.5 74.0 L260.5 74.0 L261.5 74.0 L262.5 74.0 L263.5 74.0 L264.5 74.0 L265.5 74.0 L266.5 74.0 L267.5 74.0 L268.5 74.0 L269.5 74.0 L270.5 74.0 L271.5 74.0 L272.5 74.0 L273.5 74.0 L274.5 74.0 L275.5 74.0 L276.5 74.0 L277.5 74.0 L278.5 74.0 L279.5 74.0 L280.5 74.0 L281.5 74.0 L282.5 74.0 L283.5 74.0 L284.5 74.0 L285.5 74.0 L286.5 74.0 L287.5 74.0 L288.5 74.0 L289.5 74.0 L290.5 74.0 L291.5 74.0 L292.5 74.0 L293.5 74.0 L294.5 74.0 L295.5 74.0 L296.5 74.0 L297.5 74.0 L298.5 74.0 L299.5 74.0 L300.5 74.0 L301.5 74.0 L302.5 74.0 L303.4 74.1 L304.4 74.1 L305.4 74.1 L306.4 74.1 L307.4 74.1 L308.4 74.1 L309.3 74.2 L310.3 74.2 L311.3 74.2 L312.2 74.3 L313.2 74.3 L314.1 74.4 L315.1 74.4 L316.0 74.5 L316.9 74.9 L317.9 75.0 L318.8 75.1 L319.7 75.2 L320.6 75.3 L321.5 75.4 L322.4 75.5 L323.3 75.6 L324.2 75.7 L325.1 75.8 L326.0 76.0 L326.8 76.1 L327.7 76.2 L328.6 76.4 L329.4 76.5 L330.3 76.6 L331.2 76.8 L332.0 76.9 L332.9 77.1 L333.7 77.2 L334.5 77.4 L335.4 77.6 L336.2 77.7 L337.0 77.9 L337.9 78.1 L338.7 78.3 L339.5 78.4 L340.3 78.6 L341.1 78.8 L341.9 79.0 L342.7 79.2 L343.5 79.4 L344.3 79.6 L345.1 79.8 L345.9 80.0 L346.7 80.2 L347.5 80.4 L348.3 80.6 L349.1 80.8 L349.8 81.0 L350.6 81.2 L351.4 81.5 L352.2 81.7 L352.9 81.9 L353.7 82.2 L354.5 82.4 L355.2 82.6 L356.0 82.9 L356.7 83.1 L357.5 83.3 L358.2 83.6 L359.0 83.8 L359.7 84.1 L360.5 84.3 L361.2 84.6 L361.9 84.9 L362.7 85.1 L363.4 85.4 L364.1 85.7 L364.9 85.9 L365.6 86.2 L366.3 86.5 L367.0 86.8 L367.8 87.0 L368.5 87.3 L369.2 87.6 L369.9 87.9 L370.6 88.2 L371.3 88.5 L372.0 88.8 L372.7 89.1 L373.4 89.4 L374.1 89.7 L374.8 90.0 L375.5 90.3 L376.2 90.6 L376.9 90.9 L377.6 91.2 L378.2 91.5 L378.9 91.8 L379.6 92.2 L380.3 92.5 L381.0 92.8 L381.6 93.1 L382.3 93.5 L383.0 93.8 L383.6 94.1 L384.3 94.5 L384.9 94.8 L385.6 95.1 L386.3 95.5 L386.9 95.8 L387.6 96.2 L388.2 96.5 L388.9 96.9 L389.5 97.2 L390.1 97.6 L390.8 97.9 L391.4 98.3 L392.1 98.6 L399.7 103.2 L400.0 103.4 L400.3 103.6 L400.6 103.8 L400.9 104.0 L401.2 104.2 L401.5 104.4 L401.8 104.6 L402.1 104.8 L402.4 105.0 L402.7 105.2 L403.0 105.4 L403.3 105.6 L403.6 105.8 L403.9 106.0 L404.2 106.2 L404.5 106.3 L404.8 106.5 L405.1 106.7 L405.4 106.9 L405.6 107.1 L405.9 107.3 L406.6 107.8 L407.2 108.2 L407.8 108.7 L408.3 109.0 L409.0 109.5 L409.5 109.9 L410.3 110.4 L410.8 110.8 L411.6 111.4 L412.1 111.8 L412.6 112.2 L413.2 112.6 L414.0 113.2 L414.5 113.6 L415.0 114.0 L415.9 114.7 L416.4 115.1 L416.9 115.5 L417.7 116.2 L418.2 116.6 L418.8 117.0 L419.3 117.5 L420.1 118.1 L420.6 118.6 L421.1 119.0 L421.9 119.7 L422.4 120.1 L422.9 120.6 L423.4 121.0 L424.2 121.7 L424.7 122.1 L425.2 122.6 L425.7 123.0 L426.2 123.5 L427.0 124.2 L427.5 124.7 L428.0 125.1 L428.5 125.6 L429.0 126.1 L429.7 126.8 L430.2 127.2 L430.7 127.7 L431.2 128.2 L431.7 128.7 L432.4 129.4 L432.9 129.9 L433.4 130.4 L433.8 130.9 L434.5 131.6 L435.3 131.8 L435.8 132.3 L436.2 132.8 L436.9 133.6 L437.4 134.1 L437.9 134.6 L438.3 135.1 L438.8 135.6 L439.5 136.3 L439.9 136.8 L440.4 137.4 L440.8 137.9 L441.3 138.4 L441.7 138.9 L442.4 139.7 L442.8 140.2 L443.3 140.7 L443.7 141.3 L444.2 141.8 L444.6 142.3 L445.0 142.8 L445.5 143.4 L446.1 144.2 L446.5 144.7 L447.0 145.2 L447.4 145.8 L447.8 146.3 L448.2 146.9 L448.7 147.4 L449.1 148.0 L449.7 148.8 L450.1 149.3 L450.5 149.9 L450.9 150.4 L451.3 151.0 L451.7 151.5 L452.1 152.1 L452.5 152.7 L453.1 153.5 L453.5 154.1 L453.9 154.6 L454.3 155.2 L454.7 155.8 L455.1 156.3 L455.7 157.2 L456.1 157.8 L456.4 158.3 L456.8 158.9 L457.4 159.8 L457.8 160.4 L458.1 160.9 L458.7 161.8 L459.1 162.4 L459.4 163.0 L460.0 163.9 L460.3 164.5 L460.7 165.1 L461.1 165.7 L461.6 166.6 L462.0 167.2 L462.3 167.8 L462.7 168.4 L463.0 169.0 L463.4 169.7 L463.7 170.3 L464.1 170.9 L464.4 171.5 L464.6 171.8 L464.9 172.4 L465.2 173.1 L465.6 173.7 L465.9 174.3 L466.1 174.6 L466.4 175.2 L466.7 175.9 L466.9 176.2 L467.2 176.8 L467.5 177.4 L467.7 177.7 L468.0 178.3 L468.3 179.0 L468.4 179.3 L468.7 179.9 L468.9 180.2 L469.2 180.8 L469.4 181.4 L469.6 181.7 L469.9 182.3 L470.0 182.6 L470.3 183.2 L470.6 183.8 L470.7 184.1 L470.9 184.6 L471.1 184.9 L471.3 185.5 L471.6 186.0 L471.7 186.3 L471.9 186.8 L472.1 187.2 L472.3 187.7 L472.4 188.0 L472.6 188.4 L472.7 188.7 L472.9 189.0 L473.0 189.3 L474.1 191.9 L475.1 194.5 L476.0 197.1 L477.0 199.7 L477.9 202.3 L478.7 205.0 L479.6 207.6 L480.4 210.3 L480.9 212.1 L481.3 213.9 L481.8 215.7 L482.3 217.5 L482.7 219.3 L483.1 221.2 L483.5 223.0 L483.9 224.8 L484.3 226.7 L484.6 228.5 L484.9 230.4 L485.2 232.2 L485.5 234.1 L485.8 235.9 L486.1 237.8 L486.3 239.6 L487.5 239.5 L487.5 237.6 L487.5 235.7 L487.4 233.8 L487.4 231.9 L487.3 230.0 L487.3 228.0 L487.2 226.1 L487.1 224.2 L487.0 222.3 L486.9 220.3 L486.8 218.4 L486.7 216.4 L486.5 214.5 L486.4 212.5 L486.2 210.6 L486.0 208.6 L485.7 205.7 L485.4 202.8 L485.1 199.9 L484.7 197.0 L484.3 194.1 L483.8 191.1 L483.3 188.2 L482.8 185.3 L482.7 184.9 L482.6 184.5 L482.6 184.2 L482.5 183.7 L482.4 183.4 L482.3 182.8 L482.2 182.3 L482.1 181.7 L482.0 181.4 L481.9 180.8 L481.7 180.1 L481.6 179.8 L481.5 179.1 L481.4 178.8 L481.3 178.1 L481.1 177.4 L481.0 177.1 L480.9 176.4 L480.8 176.0 L480.6 175.3 L480.4 174.6 L480.3 174.2 L480.2 173.5 L480.1 173.1 L479.9 172.4 L479.7 171.7 L479.6 171.3 L479.4 170.6 L479.2 169.9 L479.1 169.5 L478.9 168.7 L478.7 168.0 L478.6 167.6 L478.4 166.9 L478.1 166.1 L477.9 165.4 L477.7 164.7 L477.6 164.3 L477.3 163.5 L477.1 162.8 L476.9 162.1 L476.6 161.3 L476.4 160.6 L476.1 159.8 L475.9 159.1 L475.6 158.4 L475.2 157.3 L475.0 156.5 L474.7 155.8 L474.4 155.1 L474.0 154.0 L473.7 153.3 L473.5 152.5 L473.0 151.5 L472.7 150.8 L472.4 150.0 L472.0 149.0 L471.7 148.3 L471.4 147.6 L471.1 146.8 L470.6 145.8 L470.3 145.1 L470.0 144.4 L469.7 143.7 L469.3 143.0 L469.0 142.3 L468.5 141.3 L468.2 140.6 L467.8 139.9 L467.5 139.2 L467.1 138.5 L466.8 137.8 L466.4 137.1 L466.1 136.4 L465.5 135.4 L465.2 134.7 L464.8 134.1 L464.4 133.4 L464.0 132.7 L463.6 132.1 L463.3 131.4 L462.9 130.7 L462.3 129.7 L461.9 129.1 L461.5 128.4 L461.1 127.7 L460.6 127.1 L460.2 126.4 L459.8 125.8 L459.4 125.1 L458.8 124.2 L458.3 123.5 L457.9 122.9 L457.4 122.3 L457.0 121.6 L456.5 121.0 L455.9 120.1 L455.4 119.4 L455.0 118.8 L454.5 118.2 L454.0 117.6 L453.3 116.7 L452.9 116.1 L452.4 115.4 L451.9 114.8 L451.2 114.0 L450.7 113.4 L450.2 112.8 L449.7 112.2 L448.9 111.3 L448.4 110.7 L447.9 110.1 L447.4 109.6 L446.9 109.0 L446.1 108.1 L445.5 107.6 L445.0 107.0 L444.5 106.4 L443.9 105.9 L443.1 105.1 L442.6 104.5 L442.0 104.0 L441.5 103.4 L440.9 102.9 L440.1 102.1 L439.5 101.6 L438.9 101.1 L438.3 100.5 L437.5 99.8 L436.9 99.3 L436.3 98.8 L435.4 98.0 L434.8 97.5 L434.2 97.0 L433.6 96.5 L432.7 95.8 L432.1 95.3 L431.5 94.9 L430.6 94.2 L430.0 93.7 L429.4 93.2 L428.5 92.5 L427.9 92.0 L427.3 91.6 L426.7 91.1 L425.8 90.5 L425.2 90.0 L424.3 89.4 L423.4 88.8 L422.3 88.0 L421.1 87.1 L419.9 86.2 L418.7 85.4 L417.5 84.5 L416.4 83.7 L415.3 83.0 L414.3 82.3 L413.5 81.7 L412.7 81.1 L412.0 80.6 L411.3 80.2 L410.8 79.8 L410.3 79.5 L409.8 79.2 L409.4 78.9 L409.0 78.6 L408.6 78.3 L408.1 78.0 L407.6 77.6 L407.1 77.2 L406.5 76.8 L405.9 76.3 L405.2 75.8 L404.4 75.2 L403.6 74.6 L402.8 74.0 L412.5 74.0 L413.5 74.0 L414.5 74.0 L415.5 74.0 L701.5 74.0 L701.5 8.0 L866.0 136.5 L701.5 275.0 L701.5 209.0 L695.5 209.0 L694.7 209.0 L694.0 209.0 L693.2 209.0 L692.4 209.0 L691.6 209.0 L690.8 209.0 L690.0 209.0 L689.2 209.0 L688.4 209.1 L687.6 209.1 L686.8 209.1 L686.0 209.1 L685.2 209.1 L684.3 209.2 L683.5 209.2 L682.6 209.3 L681.8 209.3 L680.9 209.4 L680.0 209.4 L679.1 209.5 L678.2 209.6 L677.3 209.6 L676.4 209.7 L675.4 209.8 L674.5 209.9 L673.5 210.0 L672.6 210.1 L671.6 210.2 L670.6 210.3 L669.6 210.4 L668.6 210.6 L667.6 210.7 L666.6 210.8 L665.6 211.0 L664.5 211.1 L663.5 211.3 L662.4 211.4 L661.4 211.6 L660.3 211.8 L659.2 211.9 L658.2 212.1 L657.1 212.3 L656.0 212.5 L654.9 212.7 L653.8 212.9 L652.7 213.1 L651.6 213.3 L650.5 213.5 L649.4 213.7 L648.3 213.9 L647.2 214.1 L646.1 214.4 L644.9 214.6 L643.8 214.8 L642.7 215.1 L641.6 215.3 L640.5 215.5 L639.4 215.8 L638.3 216.0 L637.2 216.3 L636.1 216.5 L635.0 216.8 L633.9 217.0 L632.8 217.3 L631.7 217.5 L630.6 217.8 L629.6 218.1 L628.5 218.3 L627.5 218.6 L626.4 218.8 L625.4 219.1 L624.3 219.4 L623.3 219.6 L622.3 219.9 L621.3 220.2 L620.3 220.4 L619.3 220.7 L618.3 221.0 L617.4 221.2 L616.4 221.5 L615.5 221.8 L614.5 222.0 L613.6 222.3 L612.7 222.6 L611.8 222.8 L610.9 223.1 L610.0 223.4 L609.2 223.6 L608.3 223.9 L607.5 224.2 L606.6 224.5 L605.8 224.7 L605.0 225.0 L604.2 225.3 L603.4 225.6 L602.6 225.8 L601.8 226.1 L601.1 226.4 L600.3 226.7 L599.6 227.0 L598.8 227.3 L598.1 227.6 L597.4 227.9 L596.7 228.2 L596.0 228.5 L595.3 228.8 L594.6 229.1 L593.9 229.4 L593.2 229.7 L592.5 230.0 L591.9 230.4 L591.2 230.7 L590.5 231.0 L589.9 231.4 L589.2 231.7 L588.5 232.0 L587.9 232.4 L587.2 232.7 L586.6 233.1 L585.9 233.4 L585.3 233.8 L584.6 234.1 L584.0 234.5 L583.4 234.9 L582.7 235.2 L582.1 235.6 L581.5 236.0 L580.8 236.3 L580.2 236.7 L579.6 237.1 L578.9 237.4 L578.3 237.8 L577.7 238.2 L577.0 238.5 L576.4 238.9 L575.8 239.3 L575.2 239.7 L574.5 240.0 L573.9 240.4 L573.3 240.8 L572.7 241.2 L572.1 241.6 L571.5 241.9 L570.9 242.3 L570.3 242.7 L569.7 243.1 L569.1 243.5 L568.5 243.9 L567.9 244.2 L567.3 244.6 L566.7 245.0 L566.2 245.4 L565.6 245.7 L565.1 246.1 L564.6 246.4 L564.1 246.8 L563.6 247.1 L563.1 247.4 L562.7 247.7 L562.3 248.0 L561.9 248.3 L561.5 248.5 L561.2 248.8 L560.8 249.0 L560.6 249.2 L560.4 249.3 L560.3 249.4 L560.1 249.5 L559.9 249.6 L559.2 250.3 L558.4 251.0 L557.6 251.7 L556.8 252.4 L556.0 253.1 L555.2 253.8 L554.4 254.5 L553.6 255.2 L552.9 255.9 L552.1 256.6 L551.3 257.3 L550.5 258.0 L551.5 258.0 L552.5 258.0 L553.5 258.0 L554.5 258.0 L555.5 258.0 L556.5 258.0 L562.7 258.0 L563.7 258.0 L564.7 258.0 L564.8 258.0 L564.9 258.0 L565.0 258.0 L565.1 258.0 L565.2 258.0 L565.5 258.0 L565.8 258.0 L565.9 258.0 L566.0 258.0 L566.1 258.0 L566.2 258.0 L566.3 258.0 L567.3 258.0 L568.3 258.0 L574.5 258.0 L575.5 258.0 L576.5 258.0 L643.0 258.0 L643.0 294.5 L643.0 295.5 L643.0 296.5 L643.0 297.5 L643.0 298.5 L643.0 299.5 L643.0 300.5 L643.0 301.5 L643.0 302.5 L643.0 303.5 L643.0 310.9 L643.0 312.1 L643.0 313.3 L643.0 313.6 L643.0 313.8 L643.0 314.1 L643.0 314.4 L643.0 314.8 L643.0 315.4 L643.0 316.0 L643.0 316.6 L643.0 317.3 L643.0 318.0 L643.0 318.7 L643.0 319.5 L643.0 320.3 L643.0 321.2 L643.0 322.0 L643.0 322.9 L643.0 323.8 L643.0 324.8 L643.0 325.7 L643.0 326.6 L643.0 327.6 L643.0 328.6 L643.0 329.6 L643.0 330.5 L643.0 331.5 L643.0 332.5 L643.0 333.5 L643.0 334.5 L643.0 335.5 L643.0 336.5 L643.0 337.5 L643.0 338.5 L643.0 339.5 L643.0 340.5 L643.0 341.5 L643.0 342.5 L643.0 343.5 L643.0 344.5 L643.0 345.5 L643.0 346.5 L643.0 347.5 L643.0 348.5 L643.0 349.5 L643.0 350.5 L643.0 351.5 L643.0 352.5 L643.0 353.5 L643.0 354.5 L643.0 355.5 L643.0 356.5 L643.0 357.5 L643.0 358.5 L643.0 359.5 L643.0 360.5 L643.0 361.5 L643.0 362.5 L643.0 363.5 L643.0 364.5 L643.0 365.5 L643.0 366.5 L643.0 367.5 L643.0 368.5 L643.0 369.5 L643.0 370.5 L643.0 371.5 L643.0 372.5 L643.0 373.5 L643.0 374.5 L643.0 375.5 L643.0 376.5 L643.0 377.5 L643.0 378.5 L643.0 379.5 L643.0 380.5 L643.0 381.5 L643.0 382.5 L643.0 383.5 L643.0 384.5 L643.0 385.5 L643.0 386.5 L643.0 387.5 L643.0 388.5 L643.0 389.5 L643.0 390.5 L643.0 391.5 L643.0 392.5 L643.0 393.5 L643.0 394.5 L643.0 395.5 L643.0 396.5 L643.0 397.5 L643.0 398.5 L643.0 399.5 L643.0 400.5 L643.0 401.5 L643.0 402.5 L643.0 403.5 L643.0 404.5 L643.0 405.5 L643.0 406.5 L643.0 407.5 L643.0 408.5 L643.0 409.5 L643.0 410.5 L643.0 411.5 L643.0 412.5 L643.0 413.5 L643.0 414.5 L643.0 415.5 L643.0 416.5 L643.0 417.5 L643.0 418.5 L643.0 419.5 L643.0 420.5 L643.0 421.5 L643.0 422.5 L643.0 423.5 L643.0 424.5 L643.0 425.5 L643.0 426.5 L643.0 427.5 L643.0 428.5 L643.0 429.5 L643.0 430.5 L643.0 431.5 L643.0 432.5 L643.0 433.5 L643.0 434.5 L643.0 435.5 L643.0 436.5 L643.0 437.5 L643.0 438.5 L643.0 439.5 L643.0 440.5 L643.0 441.5 L643.0 442.5 L643.0 443.5 L643.0 444.5 L643.0 445.5 L643.0 446.5 L643.0 447.5 L643.0 448.5 L643.0 449.5 L643.0 450.5 L643.0 451.5 L643.0 452.5 L643.0 453.5 L643.0 454.5 L643.0 455.5 L643.0 456.5 L643.0 457.5 L643.0 458.5 L643.0 459.5 L643.0 460.5 L643.0 461.5 L643.0 462.5 L643.0 463.5 L643.0 464.5 L643.0 465.5 L643.0 466.5 L643.0 467.5 L643.0 468.5 L643.0 469.5 L643.0 470.5 L643.0 471.5 L643.0 472.5 L643.0 473.5 L643.0 474.5 L643.0 475.5 L643.0 476.5 L643.0 477.5 L643.0 478.5 L643.0 479.5 L643.0 480.5 L643.0 481.5 L643.0 482.5 L643.0 483.5 L643.0 484.5 L643.0 485.5 L643.0 486.5 L643.0 487.5 L643.0 488.5 L643.0 489.5 L643.0 490.5 L643.0 491.5 L643.0 492.5 L643.0 493.5 L643.0 494.5 L643.0 495.5 L643.0 496.5 L643.0 497.5 L643.0 498.5 L643.0 499.5 L643.0 500.5 L643.0 501.5 L643.0 502.5 L643.0 503.5 L643.0 504.5 L643.0 505.5 L643.0 506.5 L643.0 507.5 L643.0 508.5 L643.0 509.5 L643.0 510.5 L643.0 511.5 L643.0 512.5 L643.0 513.5 L643.0 514.5 L643.0 515.5 L643.0 516.5 L643.0 517.5 L643.0 518.5 L643.0 519.5 L643.0 520.5 L643.0 521.5 L643.0 522.5 L643.0 523.5 L643.0 524.5 L643.0 525.5 L643.0 526.5 L643.0 527.5 L643.0 528.5 L643.0 529.5 L643.0 530.5 L643.0 531.5 L643.0 532.5 L643.0 533.5 L643.0 534.5 L643.0 535.5 L643.0 536.5 L643.0 537.5 L643.0 538.5 L643.0 539.5 L643.0 540.5 L643.0 541.5 L643.0 542.5 L643.0 543.5 L643.0 544.5 L643.0 545.5 L643.0 546.5 L643.0 547.5 L643.0 548.5 L643.0 549.5 L643.0 550.5 L643.0 551.5 L643.0 552.5 L643.0 553.5 L643.0 554.5 L643.0 555.5 L643.0 556.5 L643.0 557.5 L643.0 558.5 L643.0 559.5 L643.0 560.5 L643.0 561.5 L643.0 562.5 L643.0 563.5 L643.0 564.5 L643.0 565.5 L643.0 566.5 L643.0 567.5 L643.0 568.5 L643.0 569.5 L643.0 570.5 L643.0 571.5 L643.0 572.5 L643.0 573.5 L643.0 574.5 L643.0 575.5 L643.0 576.5 L643.0 577.5 L643.0 578.5 L643.0 579.5 L643.0 580.5 L643.0 581.5 L643.0 582.5 L643.0 583.5 L643.0 584.5 L643.0 585.5 L643.0 586.5 L643.0 587.5 L643.0 588.5 L643.0 589.5 L643.0 590.5 L643.0 591.5 L643.0 592.5 L643.0 593.5 L643.0 594.4 L643.0 595.4 L643.0 596.4 L643.0 597.4 L643.0 598.3 L643.0 599.2 L643.0 600.2 L643.0 601.1 L643.0 602.0 L643.0 602.8 L643.0 603.7 L643.0 604.5 L643.0 605.3 L643.0 606.0 L643.0 606.7 L643.0 607.4 L643.0 608.0 L643.0 608.6 L643.0 609.2 L643.0 609.6 L643.0 609.9 L643.0 610.2 L643.0 610.4 L643.0 610.7 L643.0 611.9 L643.0 613.1 L643.0 620.5 L643.0 621.5 L643.0 622.5 L643.0 623.5 L643.0 624.5 L643.0 653.0 L624.5 653.0 L623.5 653.0 L622.5 653.0 L621.5 653.0 L620.5 653.0 L619.5 653.0 L618.5 653.0 L617.5 653.0 L616.5 653.0 L615.5 653.0 L608.2 653.0 L607.0 653.0 L605.9 653.0 L605.6 653.0 L605.4 653.0 L605.2 653.0 L604.9 653.0 L604.7 653.0 L604.1 653.0 L603.6 653.0 L603.2 653.0 L602.7 653.0 L602.2 653.0 L601.8 653.0 L601.3 653.0 L600.8 653.0 L600.4 653.0 L599.9 653.0 L599.3 653.0 L599.1 653.0 L598.8 653.0 L598.6 653.0 L598.4 653.0 L598.1 653.0 L597.0 653.0 L595.8 653.0 L588.5 653.0 L587.5 653.0 L586.5 653.0 L585.5 653.0 L584.5 653.0 L542.0 653.0 L542.0 622.5 L542.0 621.5 L542.0 620.5 L542.0 619.5 L542.0 618.5 L542.0 617.5 L542.0 616.5 L542.0 615.5 L542.0 614.5 L542.0 613.5 L542.0 606.1 L542.0 604.9 L542.0 603.7 L542.0 603.4 L542.0 603.2 L542.0 602.9 L542.0 602.6 L542.0 602.2 L542.0 601.6 L542.0 601.0 L542.0 600.4 L542.0 599.7 L542.0 599.0 L542.0 598.3 L542.0 597.5 L542.0 596.7 L542.0 595.8 L542.0 595.0 L542.0 594.1 L542.0 593.2 L542.0 592.2 L542.0 591.3 L542.0 590.4 L542.0 589.4 L542.0 588.4 L542.0 587.4 L542.0 586.5 L542.0 585.5 L542.0 584.5 L542.0 583.5 L542.0 582.5 L542.0 581.5 L542.0 580.5 L542.0 579.5 L542.0 578.5 L542.0 577.5 L542.0 576.5 L542.0 575.5 L542.0 574.5 L542.0 573.5 L542.0 572.5 L542.0 571.5 L542.0 570.5 L542.0 569.5 L542.0 568.5 L542.0 567.5 L542.0 566.5 L542.0 565.5 L542.0 564.5 L542.0 563.5 L542.0 562.5 L542.0 561.5 L542.0 560.5 L542.0 559.5 L542.0 558.5 L542.0 557.5 L542.0 556.5 L542.0 555.5 L542.0 554.5 L542.0 553.5 L542.0 552.5 L542.0 551.5 L542.0 550.5 L542.0 549.5 L542.0 548.5 L542.0 547.5 L542.0 546.5 L542.0 545.5 L542.0 544.5 L542.0 543.5 L542.0 542.5 L542.0 541.5 L542.0 540.5 L542.0 539.5 L542.0 538.5 L542.0 537.5 L542.0 536.5 L542.0 535.5 L542.0 534.5 L542.0 533.5 L542.0 532.5 L542.0 531.5 L542.0 530.5 L542.0 529.5 L542.0 528.5 L542.0 527.5 L542.0 526.5 L542.0 525.5 L542.0 524.5 L542.0 523.5 L542.0 522.5 L542.0 521.5 L542.0 520.5 L542.0 519.5 L542.0 518.5 L542.0 517.5 L542.0 516.5 L542.0 515.5 L542.0 514.5 L542.0 513.5 L542.0 512.5 L542.0 511.5 L542.0 510.5 L542.0 509.5 L542.0 508.5 L542.0 507.5 L542.0 506.5 L542.0 505.5 L542.0 504.5 L542.0 503.5 L542.0 502.5 L542.0 501.5 L542.0 500.5 L542.0 499.5 L542.0 498.5 L542.0 497.5 L542.0 496.5 L542.0 495.5 L542.0 494.5 L542.0 493.5 L542.0 492.5 L542.0 491.5 L542.0 490.5 L542.0 489.5 L542.0 488.5 L542.0 487.5 L542.0 486.5 L542.0 485.5 L542.0 484.5 L542.0 483.5 L542.0 482.5 L542.0 481.5 L542.0 480.5 L542.0 479.5 L542.0 478.5 L542.0 477.5 L542.0 476.5 L542.0 475.5 L542.0 474.5 L542.0 473.5 L542.0 472.5 L542.0 471.5 L542.0 470.5 L542.0 469.5 L542.0 468.5 L542.0 467.5 L542.0 466.5 L542.0 465.5 L542.0 464.5 L542.0 463.5 L542.0 462.5 L542.0 461.5 L542.0 460.5 L542.0 459.5 L542.0 458.5 L542.0 457.5 L542.0 456.5 L542.0 455.5 L542.0 454.5 L542.0 453.5 L542.0 452.5 L542.0 451.5 L542.0 450.5 L542.0 449.5 L542.0 448.5 L542.0 447.5 L542.0 446.5 L542.0 445.5 L542.0 444.5 L542.0 443.5 L542.0 442.5 L542.0 441.5 L542.0 440.5 L542.0 439.5 L542.0 438.5 L542.0 437.5 L542.0 436.5 L542.0 435.5 L542.0 434.5 L542.0 433.5 L542.0 432.5 L542.0 431.5 L542.0 430.5 L542.0 429.5 L542.0 428.5 L542.0 427.5 L542.0 426.5 L542.0 425.5 L542.0 424.5 L542.0 423.5 L542.0 422.5 L542.0 421.5 L542.0 420.5 L542.0 419.5 L542.0 418.5 L542.0 417.5 L542.0 416.5 L542.0 415.5 L542.0 414.5 L542.0 413.5 L542.0 412.5 L542.0 411.5 L542.0 410.5 L542.0 409.5 L542.0 408.5 L542.0 407.5 L542.0 406.5 L542.0 405.5 L542.0 404.5 L542.0 403.5 L542.0 402.5 L542.0 401.5 L542.0 400.5 L542.0 399.5 L542.0 398.5 L542.0 397.5 L542.0 396.5 L542.0 395.5 L542.0 394.5 L542.0 393.5 L542.0 392.5 L542.0 391.5 L542.0 390.5 L542.0 389.5 L542.0 388.5 L542.0 387.5 L542.0 386.5 L542.0 385.5 L542.0 384.5 L542.0 383.5 L542.0 382.5 L542.0 381.5 L542.0 380.5 L542.0 379.5 L542.0 378.5 L542.0 377.5 L542.0 376.5 L542.0 375.5 L542.0 374.5 L542.0 373.5 L542.0 372.5 L542.0 371.5 L542.0 370.5 L542.0 369.5 L542.0 368.5 L542.0 367.5 L542.0 366.5 L542.0 365.5 L542.0 364.5 L542.0 363.5 L542.0 362.5 L542.0 361.5 L542.0 360.5 L542.0 359.5 L542.0 358.5 L542.0 357.5 L542.0 356.5 L542.0 355.5 L542.0 354.5 L542.0 353.5 L542.0 352.5 L542.0 351.5 L542.0 350.5 L542.0 349.5 L542.0 348.5 L542.0 347.5 L542.0 346.5 L542.0 345.5 L542.0 344.5 L542.0 343.5 L542.0 342.5 L542.0 341.5 L542.0 340.5 L542.0 339.5 L542.0 338.5 L542.0 337.5 L542.0 336.5 L542.0 335.5 L542.0 334.5 L542.0 333.5 L542.0 332.5 L542.0 331.5 L542.0 330.5 L542.0 329.5 L542.0 328.5 L542.0 327.5 L542.0 326.5 L542.0 325.5 L542.0 324.5 L542.0 323.5 L542.0 322.5 L542.0 321.5 L542.0 320.5 L542.0 319.5 L542.0 318.5 L542.0 317.5 L542.0 316.5 L542.0 315.5 L542.0 314.5 L542.0 313.5 L542.0 312.5 L542.0 311.5 L542.0 310.5 L542.0 309.5 L542.0 308.5 L542.0 307.5 L542.0 306.5 L542.0 305.5 L542.0 304.5 L542.0 303.5 L542.0 302.5 L542.0 301.5 L542.0 300.5 L542.0 299.5 L542.0 298.5 L542.0 297.6 L542.0 296.6 L542.0 295.6 L542.0 294.6 L542.0 293.7 L542.0 292.8 L542.0 291.8 L542.0 290.9 L542.0 290.0 L542.0 289.2 L542.0 288.3 L542.0 287.5 L542.0 286.7 L542.0 286.0 L542.0 285.3 L542.0 284.6 L542.0 284.0 L542.0 283.4 L542.0 282.8 L542.0 282.4 L542.0 282.1 L542.0 281.8 L542.0 281.6 L542.0 281.3 L542.0 280.1 L542.0 278.9 L542.0 271.5 L542.0 270.5 L542.0 269.5 L542.0 268.5 L542.0 267.5 L542.0 266.5 L542.0 265.5 L541.5 265.0 L540.5 265.0 L540.0 265.5 L539.5 266.0 L539.0 266.5 L538.5 267.0 L538.0 267.5 L537.5 268.0 L537.0 268.5 L533.5 272.3 L532.9 272.9 L532.3 273.6 L532.2 273.7 L532.0 273.9 L531.9 274.0 L531.7 274.2 L531.6 274.4 L531.3 274.7 L531.0 275.0 L530.7 275.4 L530.4 275.7 L530.1 276.1 L529.8 276.5 L529.4 276.9 L529.0 277.3 L528.6 277.8 L528.2 278.3 L527.8 278.8 L527.4 279.3 L527.0 279.8 L526.6 280.3 L526.1 280.8 L525.7 281.3 L525.3 281.9 L524.8 282.4 L524.4 282.9 L524.0 283.5 L523.5 284.0 L523.1 284.6 L522.7 285.2 L522.2 285.7 L521.8 286.3 L521.4 286.9 L520.9 287.4 L520.5 288.0 L520.1 288.6 L519.7 289.2 L519.2 289.7 L518.8 290.3 L518.4 290.9 L518.0 291.5 L517.6 292.1 L517.2 292.7 L516.8 293.3 L516.4 293.9 L516.0 294.5 L515.6 295.1 L515.3 295.8 L514.9 296.4 L514.5 297.0 L514.2 297.7 L513.8 298.3 L513.4 298.9 L513.1 299.6 L512.7 300.2 L512.4 300.9 L512.1 301.6 L511.7 302.2 L511.4 302.9 L511.1 303.6 L510.8 304.3 L510.4 304.9 L510.1 305.6 L509.8 306.3 L509.5 307.0 L509.2 307.7 L508.9 308.4 L508.6 309.1 L508.4 309.9 L508.1 310.6 L507.8 311.3 L507.5 312.0 L507.3 312.8 L507.0 313.5 L506.7 314.2 L506.5 315.0 L506.2 315.7 L506.0 316.5 L505.7 317.2 L505.5 318.0 L505.3 318.8 L505.0 319.5 L504.8 320.3 L504.6 321.1 L504.3 321.8 L504.1 322.6 L503.9 323.4 L503.7 324.2 L503.4 324.9 L503.2 325.7 L503.0 326.5 L502.8 327.3 L502.6 328.1 L502.4 328.9 L502.1 329.6 L501.9 330.4 L501.7 331.2 L501.5 332.0 L501.3 332.8 L501.1 333.6 L500.9 334.4 L500.7 335.2 L500.5 336.0 L500.3 336.8 L500.1 337.6 L499.9 338.4 L499.6 339.1 L499.4 339.9 L499.2 340.7 L499.0 341.5 L498.8 342.3 L498.6 343.1 L498.4 343.9 L498.1 344.6 L497.9 345.4 L497.7 346.2 L497.5 347.0 L497.2 347.7 L497.0 348.5 L496.8 349.3 L496.6 350.1 L496.3 350.8 L496.1 351.6 L495.8 352.3 L495.6 353.1 L495.4 353.9 L495.1 354.6 L494.9 355.4 L494.6 356.1 L494.3 356.8 L494.1 357.6 L493.8 358.3 L493.5 359.0 L493.3 359.8 L493.0 360.5 L492.7 361.2 L492.4 361.9 L492.1 362.6 L491.9 363.4 L491.6 364.1 L491.3 364.8 L491.0 365.5 L490.7 366.2 L490.4 366.9 L490.1 367.6 L489.8 368.3 L489.4 368.9 L489.1 369.6 L488.8 370.3 L488.5 371.0 L488.2 371.7 L487.9 372.4 L487.5 373.0 L487.2 373.7 L486.9 374.4 L486.6 375.1 L486.2 375.7 L485.9 376.4 L485.6 377.1 L485.3 377.8 L484.9 378.4 L484.6 379.1 L484.3 379.8 L483.9 380.4 L483.6 381.1 L483.2 381.7 L482.9 382.4 L482.5 383.0 L482.2 383.7 L481.9 384.4 L481.5 385.0 L481.1 385.6 L480.8 386.3 L480.4 386.9 L480.1 387.6 L479.7 388.2 L479.4 388.9 L479.0 389.5 L478.6 390.1 L478.3 390.8 L477.9 391.4 L477.5 392.0 L477.1 392.6 L476.8 393.3 L476.4 393.9 L476.0 394.5 L475.6 395.1 L475.3 395.8 L474.9 396.4 L474.5 397.0 L474.1 397.6 L473.7 398.2 L473.3 398.8 L472.9 399.4 L472.5 400.0 L472.1 400.6 L471.7 401.2 L471.3 401.8 L470.9 402.4 L470.5 403.0 L470.1 403.6 L469.7 404.2 L469.3 404.8 L468.9 405.4 L468.5 406.0 L468.1 406.6 L467.6 407.1 L467.2 407.7 L466.8 408.3 L466.4 408.9 L466.0 409.5 L465.5 410.0 L465.1 410.6 L464.7 411.2 L464.2 411.7 L463.8 412.3 L463.4 412.9 L462.9 413.4 L462.5 414.0 L462.0 414.5 L461.6 415.1 L461.2 415.7 L460.7 416.2 L460.3 416.8 L459.8 417.3 L459.4 417.9 L458.9 418.4 L458.4 418.9 L458.0 419.5 L457.5 420.0 L457.1 420.6 L456.6 421.1 L456.1 421.6 L455.7 422.2 L455.2 422.7 L454.7 423.2 L454.3 423.8 L453.8 424.3 L453.3 424.8 L452.8 425.3 L452.4 425.9 L451.9 426.4 L451.4 426.9 L450.9 427.4 L450.4 427.9 L449.9 428.4 L449.4 428.9 L448.9 429.4 L448.4 429.9 L447.9 430.4 L447.4 430.9 L446.9 431.4 L446.4 431.9 L445.9 432.4 L445.4 432.9 L444.9 433.4 L444.4 433.9 L443.9 434.4 L443.4 434.9 L442.9 435.4 L442.3 435.8 L441.8 436.3 L441.3 436.8 L440.8 437.3 L440.3 437.8 L439.7 438.2 L439.2 438.7 L438.7 439.2 L438.1 439.6 L437.6 440.1 L437.1 440.6 L436.5 441.0 L436.0 441.5 L435.4 441.9 L434.9 442.4 L434.3 442.8 L433.8 443.3 L433.2 443.7 L432.7 444.2 L432.1 444.6 L431.6 445.1 L431.0 445.5 L430.5 446.0 L429.9 446.4 L429.3 446.8 L428.8 447.3 L428.2 447.7 L427.6 448.1 L427.1 448.6 L426.5 449.0 L425.9 449.4 L425.3 449.8 L424.7 450.2 L424.2 450.7 L423.6 451.1 L423.0 451.5 L422.4 451.9 L421.8 452.3 L421.2 452.7 L420.6 453.1 L420.0 453.5 L419.4 453.9 L418.8 454.3 L418.2 454.7 L417.6 455.1 L417.0 455.5 L416.4 455.9 L415.8 456.3 L415.2 456.7 L414.6 457.1 L414.0 457.5 L413.4 457.9 L412.7 458.2 L412.1 458.6 L411.5 459.0 L410.9 459.4 L410.3 459.8 L409.6 460.1 L409.0 460.5 L408.4 460.9 L407.7 461.2 L407.1 461.6 L406.4 461.9 L405.8 462.3 L405.1 462.6 L404.5 463.0 L403.8 463.3 L403.2 463.7 L402.5 464.0 L401.9 464.4 L401.2 464.7 L400.5 465.0 L399.9 465.4 L399.2 465.7 L398.5 466.0 L397.8 466.3 L397.2 466.7 L396.5 467.0 L395.8 467.3 L395.1 467.6 L394.4 467.9 L393.7 468.2 L393.0 468.5 L392.3 468.8 L391.6 469.1 L390.9 469.4 L390.2 469.7 L389.5 470.0 L388.8 470.3 L388.1 470.6 L387.4 470.9 L386.7 471.2 L386.0 471.5 L385.3 471.8 L384.6 472.1 L383.9 472.4 L383.1 472.6 L382.4 472.9 L381.7 473.2 L381.0 473.5 L380.3 473.8 L379.5 474.0 L378.8 474.3 L378.1 474.6 L377.3 474.8 L376.6 475.1 L375.9 475.4 L375.1 475.6 L374.4 475.9 L373.6 476.1 L372.9 476.4 L372.1 476.6 L371.4 476.9 L370.6 477.1 L369.9 477.4 L369.1 477.6 L368.4 477.9 L367.6 478.1 L366.8 478.3 L366.1 478.6 L365.3 478.8 L364.5 479.0 L363.7 479.2 L362.9 479.4 L362.2 479.7 L361.4 479.9 L360.6 480.1 L359.8 480.3 L359.0 480.5 L358.2 480.7 L357.4 480.9 L356.6 481.1 L355.8 481.3 L355.0 481.5 L354.2 481.7 L353.3 481.8 L352.5 482.0 L351.7 482.2 L350.9 482.4 L350.0 482.5 L349.2 482.7 L348.3 482.8 L347.5 483.0 L346.6 483.1 L345.8 483.3 L344.9 483.4 L344.0 483.5 L343.1 483.6 L342.2 483.7 L341.4 483.9 L340.5 484.0 L339.6 484.1 L338.7 484.2 L337.7 484.2 L336.8 484.3 L335.9 484.4 L335.0 484.5 L334.0 484.5 L333.1 484.6 L332.1 484.6 L331.2 484.7 L330.2 484.7 L329.3 484.8 L328.3 484.8 L327.3 484.8 L326.4 484.9 L325.4 484.9 L324.4 484.9 L323.4 484.9 L322.4 484.9 L321.4 484.9 L320.5 485.0 L319.5 485.0 L318.5 485.0 L317.5 485.0 L316.5 485.0 L315.5 485.0 L314.5 485.0 L313.5 485.0 L312.5 485.0 L311.5 485.0 L310.5 485.0 L309.5 485.0 L308.5 485.0 L307.5 485.0 L306.5 485.0 L305.5 485.0 L304.5 485.0 L303.5 485.0 L302.5 485.0 L301.5 485.0 L300.5 485.0 L299.5 485.0 L298.5 485.0 L297.5 485.0 L296.5 485.0 L295.5 485.0 L294.5 485.0 L293.5 485.0 L292.5 485.0 L291.5 485.0 L290.5 485.0 L289.5 485.0 L288.5 485.0 L287.5 485.0 L286.5 485.0 L285.5 485.0 L284.5 485.0 L283.5 485.0 L282.5 485.0 L281.5 485.0 L280.5 485.0 L279.5 485.0 L278.5 485.0 L277.5 485.0 L276.5 485.0 L275.5 485.0 L274.5 485.0 L273.5 485.0 L272.5 485.0 L271.6 485.1 L270.6 485.1 L269.6 485.1 L268.6 485.1 L267.6 485.1 L266.6 485.1 L265.7 485.2 L264.7 485.2 L263.7 485.2 L262.7 485.2 L261.8 485.3 L260.8 485.3 L259.8 485.3 L258.9 485.4 L257.9 485.4 L257.0 485.5 L256.0 485.5 L255.1 485.6 L254.1 485.6 L253.2 485.7 L252.3 485.8 L251.3 485.8 L250.4 485.9 L249.5 486.0 L248.6 486.1 L247.7 486.2 L246.8 486.3 L245.9 486.4 L245.0 486.5 L244.1 486.6 L243.2 486.7 L242.3 486.8 L241.4 486.9 L240.6 487.1 L239.7 487.2 L238.9 487.4 L238.1 487.6 L237.2 487.7 L236.4 487.9 L235.6 488.1 L234.8 488.3 L234.0 488.5 L233.2 488.7 L232.4 488.9 L231.7 489.2 L230.9 489.4 L230.2 489.7 L229.4 489.9 L228.7 490.2 L227.9 490.4 L227.2 490.7 L226.5 491.0 L225.8 491.3 L225.0 491.5 L224.3 491.8 L223.6 492.1 L222.9 492.4 L222.2 492.7 L221.6 493.1 L220.9 493.4 L220.2 493.7 L219.5 494.0 L218.9 494.4 L218.2 494.7 L217.5 495.0 L216.9 495.4 L216.2 495.7 L215.6 496.1 L215.0 496.5 L214.3 496.8 L213.7 497.2 L213.1 497.6 L212.4 497.9 L211.8 498.3 L211.2 498.7 L210.6 499.1 L210.0 499.5 L209.4 499.9 L208.9 500.4 L208.3 500.8 L207.7 501.2 L207.1 501.6 L206.6 502.1 L206.0 502.5 L205.5 503.0 L204.9 503.4 L204.4 503.9 L203.8 504.3 L203.3 504.8 L202.8 505.3 L202.3 505.8 L201.8 506.3 L201.3 506.8 L200.8 507.3 L200.3 507.8 L199.8 508.3 L199.3 508.8 L198.8 509.3 L198.4 509.9 L197.9 510.4 L197.5 511.0 L197.0 511.5 L196.6 512.1 L196.2 512.7 L195.7 513.2 L195.3 513.8 L194.9 514.4 L194.5 515.0 L194.1 515.6 L193.7 516.2 L193.4 516.9 L193.0 517.5 L192.6 518.1 L192.3 518.8 L191.9 519.4 L191.6 520.1 L191.2 520.7 L190.9 521.4 L190.6 522.1 L190.3 522.8 L190.0 523.5 L189.7 524.2 L189.4 524.9 L189.1 525.6 L188.9 526.4 L188.6 527.1 L188.3 527.8 L188.1 528.6 L187.8 529.3 L187.6 530.1 L187.3 530.8 L187.1 531.6 L186.9 532.4 L186.7 533.2 L186.5 534.0 L186.2 534.7 L186.0 535.5 L185.8 536.3 L185.6 537.1 L185.5 538.0 L185.3 538.8 L185.1 539.6 L184.9 540.4 L184.7 541.2 L184.6 542.1 L184.4 542.9 L184.3 543.8 L184.1 544.6 L184.0 545.5 L183.8 546.3 L183.7 547.2 L183.6 548.1 L183.5 549.0 L183.3 549.8 L183.2 550.7 L183.1 551.6 L183.0 552.5 L182.9 553.4 L182.9 554.4 L182.8 555.3 L182.7 556.2 L182.6 557.1 L182.6 558.1 L182.5 559.0 L182.4 559.9 L182.4 560.9 L182.3 561.8 L182.3 562.8 L182.2 563.7 L182.2 564.7 L182.2 565.7 L182.2 566.7 L182.1 567.6 L182.1 568.6 L182.1 569.6 L182.1 570.6 L182.1 571.6 L182.1 572.5 L182.0 573.5 L182.0 574.5 L182.0 575.5 L182.0 576.5 L182.0 577.5 L182.0 578.5 L182.0 579.5 L182.0 580.5 L182.0 581.4 L182.0 582.4 L182.0 583.4 L182.0 584.4 L182.0 585.4 L182.0 586.3 L182.0 587.3 L182.0 588.3 L182.0 589.3 L182.0 590.2 L182.0 591.2 L182.0 592.2 L182.0 593.1 L182.0 594.1 L182.0 595.1 L182.0 596.0 L182.0 597.0 L182.0 597.9 L182.0 598.9 L182.0 599.8 L182.0 600.8 L182.0 601.7 L182.0 602.6 L182.0 603.6 L182.0 604.5 L182.0 605.4 L182.0 606.3 L182.0 607.2 L182.0 608.1 L182.0 608.9 L182.0 609.8 L182.0 610.6 L182.0 611.4 L182.0 612.2 L182.0 612.9 L182.0 613.6 L182.0 614.3 L182.0 614.9 L182.0 615.5 L182.0 616.1 L182.0 616.7 L182.0 617.0 L182.0 617.3 L182.0 617.5 L182.0 617.8 L182.0 618.0 L182.0 619.2 L182.0 620.4 L182.0 627.5 L182.0 628.5 L182.0 629.5 L182.0 630.5 L182.0 631.5 L182.0 632.5 L182.0 633.5 L182.0 634.5 L182.0 635.5 L182.0 636.5 L182.0 661.0 L106.4 661.0 L106.4 660.7 L106.4 659.4 L106.4 658.2 L106.4 656.9 L106.4 655.6 L106.4 654.3 L106.4 653.1 L106.4 651.8 L106.4 650.5 L106.4 649.2 L106.4 648.0 L106.4 646.7 L106.4 645.4 L106.4 644.1 L106.4 642.9 L106.4 641.6 L106.4 640.3 L106.4 639.0 L106.4 637.8 L106.4 636.5 L106.4 635.2 L106.4 633.9 L106.4 632.7 L106.4 631.4 L106.4 630.1 L106.4 628.8 L106.4 627.6 L106.4 626.3 L106.4 625.0 L106.4 623.7 L106.4 622.5 L106.4 621.2 L106.4 619.9 L106.4 618.6 L106.4 617.4 L106.4 616.1 L106.4 614.8 L106.4 613.5 L106.4 612.4 L106.4 611.2 L106.4 610.0 L106.4 608.8 L106.4 607.6 L106.4 606.5 L106.4 605.3 L106.4 604.2 L106.4 603.1 L106.4 602.1 L106.4 601.0 L106.4 599.9 L106.4 598.8 L106.4 597.8 L106.4 596.7 L106.4 595.7 L106.4 594.7 L106.4 593.7 L106.4 592.7 L106.4 591.8 L106.4 590.8 L106.4 589.9 L106.4 589.0 L106.4 588.1 L106.4 587.2 L106.4 586.3 L106.4 585.4 L106.4 584.6 L106.5 583.8 L106.5 582.9 L106.5 582.1 L106.5 581.3 L106.6 580.5 L106.6 579.7 L106.6 578.9 L106.6 578.1 L106.7 577.4 L106.7 576.6 L106.8 575.8 L106.8 575.0 L106.9 574.3 L106.9 573.5 L107.0 572.7 L107.0 572.0 L107.1 571.2 L107.2 570.4 L107.2 569.6 L107.3 568.8 L107.4 568.0 L107.5 567.2 L107.6 566.4 L107.6 565.6 L107.7 564.8 L107.8 563.9 L107.9 563.1 L108.1 562.2 L108.2 561.3 L108.3 560.4 L108.4 559.6 L108.5 558.6 L108.7 557.7 L108.8 556.8 L108.9 555.9 L109.1 554.9 L109.2 554.0 L109.4 553.1 L109.5 552.1 L109.7 551.2 L109.8 550.2 L110.0 549.3 L110.2 548.3 L110.3 547.4 L110.5 546.5 L110.7 545.5 L110.8 544.6 L111.0 543.7 L111.2 542.8 L111.4 541.9 L111.6 541.0 L111.7 540.1 L111.9 539.3 L112.1 538.4 L112.3 537.5 L112.5 536.7 L112.7 535.8 L112.9 535.0 L113.1 534.2 L113.3 533.3 L113.5 532.5 L113.7 531.7 L113.9 530.9 L114.1 530.1 L114.3 529.3 L114.6 528.5 L114.8 527.7 L115.0 526.9 L115.2 526.1 L115.5 525.3 L115.7 524.6 L115.9 523.8 L116.2 523.0 L116.4 522.2 L116.7 521.5 L116.9 520.7 L117.2 519.9 L117.4 519.2 L117.7 518.4 L118.0 517.7 L118.2 516.9 L118.5 516.1 L118.8 515.4 L119.1 514.6 L119.4 513.9 L119.7 513.1 L120.0 512.3 L120.3 511.6 L120.6 510.8 L120.9 510.1 L121.2 509.3 L121.5 508.5 L121.8 507.8 L122.2 507.0 L122.5 506.3 L122.9 505.5 L123.2 504.7 L123.6 504.0 L123.9 503.2 L124.3 502.4 L124.6 501.7 L125.0 500.9 L125.4 500.1 L125.8 499.4 L126.2 498.6 L126.6 497.8 L127.0 497.0 L127.4 496.3 L127.8 495.5 L128.2 494.7 L128.6 494.0 L129.1 493.2 L129.5 492.4 L130.0 491.7 L130.4 490.9 L130.9 490.1 L131.3 489.4 L131.8 488.6 L132.2 487.9 L132.7 487.1 L133.2 486.4 L133.7 485.6 L134.2 484.9 L134.6 484.1 L135.1 483.4 L135.6 482.7 L136.1 481.9 L136.6 481.2 L137.1 480.5 L137.6 479.8 L138.1 479.1 L138.6 478.4 L139.1 477.7 L139.6 477.1 L140.2 476.4 L140.7 475.7 L141.2 475.1 L141.7 474.4 L142.2 473.8 L142.7 473.1 L143.2 472.5 L143.7 471.9 L144.2 471.3 L144.7 470.7 L145.2 470.1 L145.7 469.5 L146.3 468.9 L146.8 468.3 L147.3 467.7 L147.8 467.1 L148.3 466.6 L148.8 466.0 L149.3 465.5 L149.8 464.9 L150.4 464.4 L150.9 463.8 L151.4 463.3 L151.9 462.8 L152.4 462.3 L152.9 461.7 L153.4 461.2 L153.9 460.7 L154.4 460.2 L154.9 459.8 L155.5 459.3 L156.0 458.8 L156.5 458.3 L157.0 457.8 L157.5 457.4 L158.1 456.9 L158.6 456.4 L159.1 455.9 L159.7 455.5 L160.3 455.0 L160.9 454.5 L161.4 454.0 L162.0 453.5 L162.7 453.1 L163.3 452.6 L163.9 452.1 L164.6 451.6 L165.3 451.1 L166.0 450.6 L166.7 450.1 L167.4 449.6 L168.1 449.1 L168.9 448.6 L169.6 448.1 L170.4 447.6 L171.2 447.1 L172.0 446.7 L172.8 446.2 L173.6 445.7 L174.4 445.3 L175.2 444.8 L176.1 444.4 L176.9 443.9 L177.8 443.5 L178.6 443.1 L179.5 442.7 L180.4 442.3 L181.2 441.9 L182.1 441.5 L183.0 441.1 L183.9 440.7 L184.8 440.4 L185.7 440.0 L186.7 439.6 L187.6 439.3 L188.5 439.0 L189.5 438.6 L190.4 438.3 L191.4 438.0 L192.3 437.7 L193.3 437.4 L194.3 437.1 L195.3 436.8 L196.3 436.5 L197.2 436.2 L198.2 435.9 L199.2 435.6 L200.2 435.3 L201.2 435.1 L202.2 434.8 L203.1 434.6 L204.1 434.3 L205.1 434.1 L206.0 433.8 L207.0 433.6 L207.9 433.4 L208.9 433.2 L209.8 433.0 L210.7 432.8 L211.6 432.6 L212.5 432.4 L213.3 432.2 L214.2 432.0 L215.0 431.9 L215.9 431.7 L216.7 431.5 L217.5 431.4 L218.3 431.3 L219.1 431.1 L219.8 431.0 L220.6 430.9 L221.4 430.8 L222.1 430.6 L222.8 430.5 L223.6 430.4 L224.3 430.3 L225.1 430.3 L225.8 430.2 L226.5 430.1 L227.3 430.0 L228.0 429.9 L228.8 429.9 L229.6 429.8 L230.3 429.7 L231.1 429.6 L231.9 429.6 L232.7 429.5 L233.5 429.5 L234.4 429.4 L235.2 429.4 L236.1 429.3 L236.9 429.2 L237.8 429.2 L238.7 429.2 L239.6 429.1 L240.4 429.1 L241.3 429.0 L242.2 429.0 L243.2 428.9 L244.1 428.9 L245.0 428.9 L245.9 428.8 L246.8 428.8 L247.7 428.8 L248.6 428.8 L249.6 428.7 L250.5 428.7 L251.4 428.7 L252.3 428.7 L253.2 428.7 L254.1 428.6 L255.1 428.6 L256.0 428.6 L256.9 428.6 L257.8 428.6 L258.7 428.6 L259.6 428.6 L260.5 428.5 L261.4 428.5 L262.4 428.5 L263.3 428.5 L264.2 428.5 L265.1 428.5 L266.0 428.5 L266.9 428.5 L267.9 428.5 L268.8 428.5 L269.7 428.5 L270.6 428.5 L271.6 428.5 L272.5 428.5 L273.4 428.5 L274.3 428.5 L275.3 428.5 L276.2 428.5 L277.2 428.5 L278.1 428.5 L279.0 428.5 L280.0 428.5 L280.9 428.5 L281.9 428.5 L282.9 428.5 L283.8 428.5 L284.8 428.4 L285.8 428.4 L286.8 428.4 L287.9 428.4 L288.9 428.4 L289.9 428.4 L291.0 428.4 L292.1 428.4 L293.2 428.4 L294.3 428.3 L295.5 428.3 L296.7 428.3 L297.9 428.2 L299.1 428.2 L300.4 428.1 L301.7 428.1 L303.1 428.0 L304.4 427.9 L305.9 427.9 L307.3 427.8 L308.8 427.7 L310.4 427.5 L312.0 427.4 L313.6 427.3 L315.3 427.1 L317.0 426.9 L318.8 426.7 L320.6 426.5 L322.4 426.3 L324.3 426.0 L326.2 425.7 L328.2 425.4 L330.2 425.1 L332.2 424.7 L334.2 424.3 L336.3 423.9 L338.3 423.4 L340.4 422.9 L342.6 422.4 L344.7 421.9 L346.8 421.3 L349.0 420.6 L351.1 420.0 L353.3 419.3 L355.4 418.5 L357.6 417.7 L359.7 416.9 L361.9 416.1 L364.1 415.1 L366.2 414.2 L368.4 413.2 L370.5 412.1 L372.7 411.0 L374.8 409.9 L377.0 408.6 L379.1 407.4 L381.3 406.1 L383.4 404.7 L385.6 403.3 L387.8 401.8 L390.0 400.2 L392.2 398.6 L394.4 397.0 L396.6 395.3 L398.8 393.5 L401.1 391.6 L403.4 389.7 L405.7 387.7 L408.0 385.7 L410.4 383.6 L412.7 381.4 L415.1 379.2 L417.5 376.9 L419.9 374.6 L422.3 372.2 L424.7 369.7 L427.0 367.2 L429.4 364.7 L431.8 362.1 L434.1 359.4 L436.5 356.8 L438.8 354.1 L441.0 351.4 L443.2 348.6 L445.4 345.9 L447.5 343.1 L449.6 340.4 L451.7 337.6 L453.7 334.8 L455.6 332.1 L457.5 329.4 L459.4 326.7 L461.2 324.0 L462.9 321.4 L464.6 318.8 L466.4 316.1 L468.1 313.4 L469.7 310.7 L471.3 308.2 L472.7 305.7 L474.1 303.3 L475.5 301.0 L476.9 298.7 L478.3 296.5 L480.1 293.7 L481.0 291.8 L482.3 290.2 L484.0 287.9 L485.8 285.5 L487.7 283.1 L489.7 280.7 L491.7 278.3 L493.8 275.8 L495.9 273.4 L498.0 271.0 L500.3 268.5 L502.6 266.1 L504.9 263.6 L507.3 261.2 L509.7 258.8 L512.1 256.4 L514.6 254.1 L517.2 251.8 L519.8 249.5 L522.4 247.2 L525.0 245.0 L527.7 242.8 L530.4 240.7 L533.1 238.6 L535.8 236.6 L538.6 234.6 L541.3 232.6 L544.1 230.7 L546.9 228.9 L549.7 227.1 L552.6 225.3 L555.4 223.6 L558.2 222.0 L561.0 220.4 L563.8 218.8 L566.6 217.3 L569.4 215.8 L572.2 214.4 L575.0 213.0 L577.7 211.7 L580.4 210.4 L583.1 209.1 L585.7 207.8 L588.3 206.6 L590.9 205.5 L593.5 204.4 L596.0 203.5 L598.5 202.6 L601.0 201.8 L603.4 201.0 L605.8 200.3 L608.1 199.6 L610.4 199.0 L612.6 198.4 L614.7 197.8 L616.8 197.3 L618.7 196.8 L620.6 196.3 L622.4 195.8 L623.9 195.5 L625.7 195.0 L627.6 194.6 L629.5 194.1 L631.4 193.7 L633.3 193.3 L635.2 192.8 L637.2 192.4 L639.1 192.0 L641.0 191.6 L642.9 191.2 L644.9 190.9 L646.8 190.5 L648.7 190.1 L650.7 189.8 L652.6 189.4 L654.5 189.1 L654.0 187.6 L652.0 187.7 L650.0 187.9 L647.9 188.0 L645.9 188.1 L643.9 188.3 L641.9 188.4 L639.8 188.6 L637.8 188.7 L635.7 188.8 L633.7 189.0 L631.6 189.1 L629.6 189.2 L627.5 189.4 L625.5 189.5 L623.4 189.7 L621.4 189.9 L619.7 190.0 L617.8 190.1 L615.8 190.2 L613.7 190.4 L611.6 190.5 L609.3 190.7 L607.0 190.9 L604.5 191.1 L602.0 191.3 L599.5 191.6 L596.8 191.9 L594.1 192.3 L591.4 192.7 L588.6 193.2 L585.8 193.8 L582.9 194.5 L580.0 195.2 L577.0 196.0 L574.0 196.8 L570.9 197.6 L567.8 198.5 L564.7 199.4 L561.5 200.4 L558.2 201.5 L555.0 202.6 L551.7 203.8 L548.5 205.1 L545.2 206.5 L541.9 207.9 L538.6 209.5 L535.4 211.1 L532.1 212.8 L528.9 214.6 L525.7 216.5 L522.6 218.5 L519.4 220.6 L516.4 222.8 L513.4 225.1 L510.5 227.5 L507.6 229.9 L504.7 232.3 L501.9 234.8 L499.2 237.4 L496.4 239.9 L493.7 242.5 L491.1 245.1 L488.5 247.8 L486.0 250.4 L483.5 253.0 L481.1 255.7 L478.8 258.3 L476.4 261.0 L475.6 262.0 L474.7 263.0 L473.9 264.0 L473.1 265.0 L472.2 266.0 L471.4 267.0 L470.6 268.0 L469.8 269.0 L469.0 270.1 L468.2 271.1 L467.4 272.1 L466.6 273.1 L465.8 274.1 L465.0 275.2 L464.3 276.2 L463.5 277.3 L462.7 278.3 L462.0 279.4 L461.3 280.5 L460.7 281.6 L460.1 282.8 L459.4 283.8 L458.7 284.9 L458.0 286.0 L457.3 287.1 L456.6 288.2 L456.0 289.4 L455.3 290.5 L454.6 291.6 L454.0 292.7 L453.3 293.8 L452.6 294.9 L452.0 296.0 L451.3 297.1 L450.6 298.3 L450.0 299.4 L449.3 300.5 L448.6 301.6 L447.9 302.7 L447.2 303.8 L446.5 304.8 L445.8 305.9 L445.1 307.0 L444.4 308.1 L443.7 309.2 L442.9 310.3 L442.2 311.3 L441.5 312.4 L440.8 313.5 L440.1 314.6 L439.3 315.6 L438.6 316.7 L437.8 317.8 L437.1 318.8 L436.4 319.9 L435.6 320.9 L434.8 322.0 L434.1 323.0 L433.3 324.1 L432.6 325.1 L431.8 326.2 L431.0 327.2 L430.2 328.2 L429.4 329.3 L428.6 330.3 L427.9 331.3 L427.1 332.3 L426.2 333.4 L425.4 334.4 L424.6 335.4 L423.8 336.4 L423.0 337.4 L422.2 338.4 L421.3 339.4 L420.5 340.4 L419.7 341.4 L418.8 342.3 L418.0 343.3 L417.1 344.3 L416.2 345.3 L415.4 346.2 L414.5 347.2 L413.6 348.2 L412.8 349.1 L411.9 350.1 L411.0 351.0 L410.1 352.0 L409.2 352.9 L408.3 353.8 L407.4 354.8 L406.5 355.7 L405.6 356.6 L404.7 357.5 L403.8 358.4 L402.9 359.4 L401.9 360.3 L401.0 361.2 L400.1 362.1 L399.1 363.0 L398.2 363.8 L397.2 364.7 L396.3 365.6 L395.3 366.5 L394.4 367.4 L393.4 368.2 L392.4 369.1 L391.4 369.9 L390.5 370.8 L389.5 371.6 L388.5 372.5 L387.5 373.3 L386.5 374.1 L385.5 374.9 L384.5 375.8 L383.5 376.6 L382.5 377.4 L381.4 378.2 L380.4 379.0 L379.4 379.7 L378.3 380.5 L377.3 381.3 L376.2 382.0 L375.2 382.8 L374.1 383.5 L373.1 384.3 L372.0 385.0 L370.9 385.7 L369.8 386.4 L368.7 387.1 L367.6 387.7 L366.5 388.4 L365.3 389.0 L364.2 389.7 L363.1 390.3 L361.9 390.9 L360.8 391.5 L359.6 392.1 L358.5 392.7 L357.3 393.2 L356.1 393.7 L354.9 394.3 L353.7 394.8 L352.5 395.3 L351.3 395.7 L350.1 396.2 L348.9 396.7 L347.7 397.1 L346.5 397.5 L345.2 397.9 L344.0 398.3 L342.8 398.7 L341.5 399.1 L340.3 399.4 L339.0 399.8 L337.8 400.1 L336.5 400.4 L335.2 400.7 L334.0 401.0 L332.7 401.3 L331.5 401.6 L330.2 401.9 L328.9 402.1 L327.6 402.3 L326.4 402.6 L325.1 402.8 L323.8 403.0 L322.5 403.2 L321.2 403.4 L320.0 403.6 L318.7 403.8 L317.4 403.9 L316.1 404.1 L314.8 404.2 L313.5 404.4 L312.2 404.5 L311.0 404.6 L309.7 404.7 L308.4 404.8 L307.1 404.9 L305.8 405.0 L304.5 405.1 L303.2 405.2 L301.9 405.3 L300.6 405.3 L299.3 405.4 L298.0 405.4 L296.7 405.5 L295.4 405.5 L294.1 405.5 L292.8 405.6 L291.5 405.6 L290.2 405.6 L288.9 405.6 L287.6 405.6 L286.4 405.6 L285.1 405.7 L283.8 405.7 L282.5 405.7 L281.2 405.7 L279.9 405.7 L278.6 405.7 L277.3 405.7 L276.0 405.7 L274.7 405.7 L273.4 405.7 L272.1 405.7 L270.8 405.7 L269.5 405.7 L268.2 405.7 L266.9 405.7 L265.6 405.7 L264.3 405.7 L263.0 405.7 L261.7 405.7 L260.4 405.8 L259.1 405.8 L257.8 405.8 L256.5 405.8 L255.2 405.8 L253.9 405.8 L252.7 405.9 L251.4 405.9 L250.1 405.9 L248.8 406.0 L247.5 406.0 L246.2 406.0 L244.9 406.1 L243.6 406.1 L242.3 406.2 L241.0 406.2 L239.7 406.3 L238.4 406.3 L237.1 406.4 L235.8 406.5 L234.5 406.6 L233.2 406.6 L231.9 406.7 L230.6 406.8 L229.3 406.9 L228.1 407.0 L226.8 407.2 L225.5 407.3 L224.2 407.4 L222.9 407.6 L221.6 407.7 L220.3 407.9 L219.0 408.1 L217.8 408.3 L216.5 408.4 L215.2 408.7 L213.9 408.9 L212.6 409.1 L211.4 409.3 L210.1 409.6 L208.8 409.9 L207.6 410.1 L206.3 410.4 L205.0 410.7 L203.8 411.0 L202.5 411.2 L201.2 411.5 L200.0 411.9 L198.7 412.2 L197.5 412.5 L196.2 412.8 L195.0 413.2 L193.7 413.5 L192.5 413.8 L191.2 414.2 L190.0 414.6 L188.7 414.9 L187.5 415.3 L186.3 415.7 L185.0 416.1 L183.8 416.5 L182.6 416.9 L181.3 417.3 L180.1 417.8 L178.9 418.2 L177.7 418.7 L176.5 419.1 L175.3 419.6 L174.1 420.1 L172.9 420.6 L171.7 421.2 L170.5 421.7 L169.3 422.2 L168.2 422.8 L167.0 423.4 L165.9 424.0 L164.7 424.6 L163.6 425.2 L162.5 425.8 L161.3 426.5 L160.2 427.1 L159.1 427.8 L158.0 428.5 L156.9 429.2 L155.8 429.9 L154.8 430.6 L153.7 431.4 L152.6 432.1 L151.6 432.9 L150.5 433.6 L149.5 434.4 L148.5 435.2 L147.5 436.0 L146.5 436.8 L145.5 437.7 L144.5 438.5 L143.5 439.4 L142.5 440.2 L141.6 441.1 L140.6 442.0 L139.6 442.8 L138.7 443.7 L137.8 444.6 L136.9 445.6 L135.9 446.5 L135.0 447.4 L134.1 448.3 L133.3 449.3 L132.4 450.2 L131.5 451.2 L130.6 452.1 L129.8 453.1 L128.9 454.1 L128.1 455.1 L127.2 456.1 L126.4 457.1 L125.6 458.1 L124.8 459.1 L124.0 460.1 L123.2 461.1 L122.4 462.1 L121.6 463.2 L120.8 464.2 L120.0 465.2 L119.3 466.3 L118.5 467.3 L117.8 468.4 L117.0 469.5 L116.3 470.5 L115.6 471.6 L114.9 472.7 L114.2 473.8 L113.5 474.9 L112.8 476.0 L112.1 477.1 L111.4 478.2 L110.8 479.3 L110.1 480.4 L109.5 481.6 L108.8 482.7 L108.2 483.8 L107.6 485.0 L107.0 486.1 L106.4 487.2 L105.8 488.4 L105.2 489.6 L104.6 490.7 L104.1 491.9 L103.5 493.0 L102.9 494.2 L102.4 495.4 L101.9 496.6 L101.3 497.8 L100.8 499.0 L100.3 500.1 L99.8 501.3 L99.3 502.5 L98.9 503.7 L98.4 505.0 L97.9 506.2 L97.5 507.4 L97.0 508.6 L96.6 509.8 L96.1 511.0 L95.7 512.3 L95.3 513.5 L94.9 514.7 L94.5 516.0 L94.1 517.2 L93.7 518.4 L93.4 519.7 L93.0 520.9 L92.7 522.2 L92.3 523.4 L92.0 524.7 L91.7 525.9 L91.3 527.2 L91.0 528.4 L90.7 529.7 L90.4 531.0 L90.1 532.2 L89.9 533.5 L89.6 534.8 L89.3 536.0 L89.1 537.3 L88.8 538.6 L88.6 539.8 L88.3 541.1 L88.1 542.4 L87.8 543.7 L87.6 544.9 L87.4 546.2 L87.2 547.5 L87.0 548.8 L86.8 550.1 L86.6 551.3 L86.4 552.6 L86.2 553.9 L86.0 555.2 L85.8 556.5 L85.7 557.8 L85.5 559.0 L85.3 560.3 L85.2 561.6 L85.0 562.9 L84.9 564.2 L84.7 565.5 L84.6 566.8 L84.5 568.1 L84.4 569.3 L84.3 570.6 L84.2 571.9 L84.1 573.2 L84.0 574.5 L83.9 575.8 L83.9 577.1 L83.8 578.4 L83.8 579.7 L83.7 581.0 L83.7 582.3 L83.7 583.6 L83.6 584.9 L83.6 586.2 L83.6 587.5 L83.6 588.8 L83.6 590.1 L83.6 591.4 L83.6 592.7 L83.6 594.0 L83.6 595.2 L83.6 596.5 L83.6 597.8 L83.6 599.1 L83.6 600.4 L83.6 601.7 L83.6 603.0 L83.6 604.3 L83.6 605.6 L83.6 606.9 L83.6 608.2 L83.6 609.5 L83.6 610.8 L83.6 612.1 L83.6 613.4 L83.6 614.7 L83.6 616.0 L83.6 617.3 L83.6 618.6 L83.6 619.9 L83.6 621.2 L83.6 622.5 L83.6 623.7 L83.6 625.0 L83.6 626.3 L83.6 627.6 L83.6 628.8 L83.6 630.1 L83.6 631.4 L83.6 632.7 L83.6 633.9 L83.6 635.2 L83.6 636.5 L83.6 637.8 L83.6 639.0 L83.6 640.3 L83.6 641.6 L83.6 642.9 L83.6 644.1 L83.6 645.4 L83.6 646.7 L83.6 648.0 L83.6 649.2 L83.6 650.5 L83.6 651.8 L83.6 653.1 L83.6 654.3 L83.6 655.6 L83.6 656.9 L83.6 658.2 L83.6 659.4 L83.6 660.7 L83.6 662.0 L8.0 662.0 L8.0 626.5 Z"/>
</svg>
